G04 #@! TF.GenerationSoftware,KiCad,Pcbnew,5.1.9+dfsg1-1~bpo10+1*
G04 #@! TF.CreationDate,2022-03-28T22:50:56+02:00*
G04 #@! TF.ProjectId,serial-wio,73657269-616c-42d7-9769-6f2e6b696361,rev?*
G04 #@! TF.SameCoordinates,Original*
G04 #@! TF.FileFunction,Paste,Top*
G04 #@! TF.FilePolarity,Positive*
%FSLAX46Y46*%
G04 Gerber Fmt 4.6, Leading zero omitted, Abs format (unit mm)*
G04 Created by KiCad (PCBNEW 5.1.9+dfsg1-1~bpo10+1) date 2022-03-28 22:50:56*
%MOMM*%
%LPD*%
G01*
G04 APERTURE LIST*
%ADD10R,0.900000X0.800000*%
G04 APERTURE END LIST*
G36*
G01*
X163633999Y-82823000D02*
X164534001Y-82823000D01*
G75*
G02*
X164784000Y-83072999I0J-249999D01*
G01*
X164784000Y-83598001D01*
G75*
G02*
X164534001Y-83848000I-249999J0D01*
G01*
X163633999Y-83848000D01*
G75*
G02*
X163384000Y-83598001I0J249999D01*
G01*
X163384000Y-83072999D01*
G75*
G02*
X163633999Y-82823000I249999J0D01*
G01*
G37*
G36*
G01*
X163633999Y-80998000D02*
X164534001Y-80998000D01*
G75*
G02*
X164784000Y-81247999I0J-249999D01*
G01*
X164784000Y-81773001D01*
G75*
G02*
X164534001Y-82023000I-249999J0D01*
G01*
X163633999Y-82023000D01*
G75*
G02*
X163384000Y-81773001I0J249999D01*
G01*
X163384000Y-81247999D01*
G75*
G02*
X163633999Y-80998000I249999J0D01*
G01*
G37*
G36*
G01*
X173412999Y-82823000D02*
X174313001Y-82823000D01*
G75*
G02*
X174563000Y-83072999I0J-249999D01*
G01*
X174563000Y-83598001D01*
G75*
G02*
X174313001Y-83848000I-249999J0D01*
G01*
X173412999Y-83848000D01*
G75*
G02*
X173163000Y-83598001I0J249999D01*
G01*
X173163000Y-83072999D01*
G75*
G02*
X173412999Y-82823000I249999J0D01*
G01*
G37*
G36*
G01*
X173412999Y-80998000D02*
X174313001Y-80998000D01*
G75*
G02*
X174563000Y-81247999I0J-249999D01*
G01*
X174563000Y-81773001D01*
G75*
G02*
X174313001Y-82023000I-249999J0D01*
G01*
X173412999Y-82023000D01*
G75*
G02*
X173163000Y-81773001I0J249999D01*
G01*
X173163000Y-81247999D01*
G75*
G02*
X173412999Y-80998000I249999J0D01*
G01*
G37*
G36*
G01*
X154616999Y-82950000D02*
X155517001Y-82950000D01*
G75*
G02*
X155767000Y-83199999I0J-249999D01*
G01*
X155767000Y-83725001D01*
G75*
G02*
X155517001Y-83975000I-249999J0D01*
G01*
X154616999Y-83975000D01*
G75*
G02*
X154367000Y-83725001I0J249999D01*
G01*
X154367000Y-83199999D01*
G75*
G02*
X154616999Y-82950000I249999J0D01*
G01*
G37*
G36*
G01*
X154616999Y-81125000D02*
X155517001Y-81125000D01*
G75*
G02*
X155767000Y-81374999I0J-249999D01*
G01*
X155767000Y-81900001D01*
G75*
G02*
X155517001Y-82150000I-249999J0D01*
G01*
X154616999Y-82150000D01*
G75*
G02*
X154367000Y-81900001I0J249999D01*
G01*
X154367000Y-81374999D01*
G75*
G02*
X154616999Y-81125000I249999J0D01*
G01*
G37*
D10*
X168513000Y-82423000D03*
X166513000Y-83373000D03*
X166513000Y-81473000D03*
X178234000Y-82423000D03*
X176234000Y-83373000D03*
X176234000Y-81473000D03*
X159496000Y-82550000D03*
X157496000Y-83500000D03*
X157496000Y-81600000D03*
M02*
