G04 #@! TF.GenerationSoftware,KiCad,Pcbnew,5.1.9+dfsg1-1~bpo10+1*
G04 #@! TF.CreationDate,2022-03-28T22:50:56+02:00*
G04 #@! TF.ProjectId,serial-wio,73657269-616c-42d7-9769-6f2e6b696361,rev?*
G04 #@! TF.SameCoordinates,Original*
G04 #@! TF.FileFunction,Copper,L1,Top*
G04 #@! TF.FilePolarity,Positive*
%FSLAX46Y46*%
G04 Gerber Fmt 4.6, Leading zero omitted, Abs format (unit mm)*
G04 Created by KiCad (PCBNEW 5.1.9+dfsg1-1~bpo10+1) date 2022-03-28 22:50:56*
%MOMM*%
%LPD*%
G01*
G04 APERTURE LIST*
G04 #@! TA.AperFunction,SMDPad,CuDef*
%ADD10R,0.900000X0.800000*%
G04 #@! TD*
G04 #@! TA.AperFunction,ComponentPad*
%ADD11C,0.800000*%
G04 #@! TD*
G04 #@! TA.AperFunction,ComponentPad*
%ADD12C,6.400000*%
G04 #@! TD*
G04 #@! TA.AperFunction,ComponentPad*
%ADD13C,2.000000*%
G04 #@! TD*
G04 #@! TA.AperFunction,ComponentPad*
%ADD14C,4.000000*%
G04 #@! TD*
G04 #@! TA.AperFunction,ComponentPad*
%ADD15O,1.700000X1.700000*%
G04 #@! TD*
G04 #@! TA.AperFunction,ComponentPad*
%ADD16R,1.700000X1.700000*%
G04 #@! TD*
G04 #@! TA.AperFunction,ViaPad*
%ADD17C,0.800000*%
G04 #@! TD*
G04 #@! TA.AperFunction,Conductor*
%ADD18C,0.500000*%
G04 #@! TD*
G04 #@! TA.AperFunction,Conductor*
%ADD19C,0.250000*%
G04 #@! TD*
G04 #@! TA.AperFunction,Conductor*
%ADD20C,0.254000*%
G04 #@! TD*
G04 #@! TA.AperFunction,Conductor*
%ADD21C,0.100000*%
G04 #@! TD*
G04 APERTURE END LIST*
G04 #@! TA.AperFunction,SMDPad,CuDef*
G36*
G01*
X163633999Y-82823000D02*
X164534001Y-82823000D01*
G75*
G02*
X164784000Y-83072999I0J-249999D01*
G01*
X164784000Y-83598001D01*
G75*
G02*
X164534001Y-83848000I-249999J0D01*
G01*
X163633999Y-83848000D01*
G75*
G02*
X163384000Y-83598001I0J249999D01*
G01*
X163384000Y-83072999D01*
G75*
G02*
X163633999Y-82823000I249999J0D01*
G01*
G37*
G04 #@! TD.AperFunction*
G04 #@! TA.AperFunction,SMDPad,CuDef*
G36*
G01*
X163633999Y-80998000D02*
X164534001Y-80998000D01*
G75*
G02*
X164784000Y-81247999I0J-249999D01*
G01*
X164784000Y-81773001D01*
G75*
G02*
X164534001Y-82023000I-249999J0D01*
G01*
X163633999Y-82023000D01*
G75*
G02*
X163384000Y-81773001I0J249999D01*
G01*
X163384000Y-81247999D01*
G75*
G02*
X163633999Y-80998000I249999J0D01*
G01*
G37*
G04 #@! TD.AperFunction*
G04 #@! TA.AperFunction,SMDPad,CuDef*
G36*
G01*
X173412999Y-82823000D02*
X174313001Y-82823000D01*
G75*
G02*
X174563000Y-83072999I0J-249999D01*
G01*
X174563000Y-83598001D01*
G75*
G02*
X174313001Y-83848000I-249999J0D01*
G01*
X173412999Y-83848000D01*
G75*
G02*
X173163000Y-83598001I0J249999D01*
G01*
X173163000Y-83072999D01*
G75*
G02*
X173412999Y-82823000I249999J0D01*
G01*
G37*
G04 #@! TD.AperFunction*
G04 #@! TA.AperFunction,SMDPad,CuDef*
G36*
G01*
X173412999Y-80998000D02*
X174313001Y-80998000D01*
G75*
G02*
X174563000Y-81247999I0J-249999D01*
G01*
X174563000Y-81773001D01*
G75*
G02*
X174313001Y-82023000I-249999J0D01*
G01*
X173412999Y-82023000D01*
G75*
G02*
X173163000Y-81773001I0J249999D01*
G01*
X173163000Y-81247999D01*
G75*
G02*
X173412999Y-80998000I249999J0D01*
G01*
G37*
G04 #@! TD.AperFunction*
G04 #@! TA.AperFunction,SMDPad,CuDef*
G36*
G01*
X154616999Y-82950000D02*
X155517001Y-82950000D01*
G75*
G02*
X155767000Y-83199999I0J-249999D01*
G01*
X155767000Y-83725001D01*
G75*
G02*
X155517001Y-83975000I-249999J0D01*
G01*
X154616999Y-83975000D01*
G75*
G02*
X154367000Y-83725001I0J249999D01*
G01*
X154367000Y-83199999D01*
G75*
G02*
X154616999Y-82950000I249999J0D01*
G01*
G37*
G04 #@! TD.AperFunction*
G04 #@! TA.AperFunction,SMDPad,CuDef*
G36*
G01*
X154616999Y-81125000D02*
X155517001Y-81125000D01*
G75*
G02*
X155767000Y-81374999I0J-249999D01*
G01*
X155767000Y-81900001D01*
G75*
G02*
X155517001Y-82150000I-249999J0D01*
G01*
X154616999Y-82150000D01*
G75*
G02*
X154367000Y-81900001I0J249999D01*
G01*
X154367000Y-81374999D01*
G75*
G02*
X154616999Y-81125000I249999J0D01*
G01*
G37*
G04 #@! TD.AperFunction*
D10*
X168513000Y-82423000D03*
X166513000Y-83373000D03*
X166513000Y-81473000D03*
X178234000Y-82423000D03*
X176234000Y-83373000D03*
X176234000Y-81473000D03*
D11*
X178127056Y-103182944D03*
X176430000Y-102480000D03*
X174732944Y-103182944D03*
X174030000Y-104880000D03*
X174732944Y-106577056D03*
X176430000Y-107280000D03*
X178127056Y-106577056D03*
X178830000Y-104880000D03*
D12*
X176430000Y-104880000D03*
D11*
X153627056Y-103182944D03*
X151930000Y-102480000D03*
X150232944Y-103182944D03*
X149530000Y-104880000D03*
X150232944Y-106577056D03*
X151930000Y-107280000D03*
X153627056Y-106577056D03*
X154330000Y-104880000D03*
D12*
X151930000Y-104880000D03*
D11*
X85127056Y-103182944D03*
X83430000Y-102480000D03*
X81732944Y-103182944D03*
X81030000Y-104880000D03*
X81732944Y-106577056D03*
X83430000Y-107280000D03*
X85127056Y-106577056D03*
X85830000Y-104880000D03*
D12*
X83430000Y-104880000D03*
D11*
X85127056Y-59182944D03*
X83430000Y-58480000D03*
X81732944Y-59182944D03*
X81030000Y-60880000D03*
X81732944Y-62577056D03*
X83430000Y-63280000D03*
X85127056Y-62577056D03*
X85830000Y-60880000D03*
D12*
X83430000Y-60880000D03*
D11*
X153627056Y-59182944D03*
X151930000Y-58480000D03*
X150232944Y-59182944D03*
X149530000Y-60880000D03*
X150232944Y-62577056D03*
X151930000Y-63280000D03*
X153627056Y-62577056D03*
X154330000Y-60880000D03*
D12*
X151930000Y-60880000D03*
D11*
X178127056Y-59182944D03*
X176430000Y-58480000D03*
X174732944Y-59182944D03*
X174030000Y-60880000D03*
X174732944Y-62577056D03*
X176430000Y-63280000D03*
X178127056Y-62577056D03*
X178830000Y-60880000D03*
D12*
X176430000Y-60880000D03*
D13*
X151230000Y-98560000D03*
X151230000Y-88400000D03*
X161390000Y-98560000D03*
X161390000Y-88400000D03*
D14*
X155030000Y-93480000D03*
D13*
X151230000Y-76560000D03*
X151230000Y-66400000D03*
X161390000Y-76560000D03*
X161390000Y-66400000D03*
D14*
X155030000Y-71480000D03*
D10*
X159496000Y-82550000D03*
X157496000Y-83500000D03*
X157496000Y-81600000D03*
D15*
X161850000Y-103480000D03*
X164390000Y-103480000D03*
D16*
X166930000Y-103480000D03*
X88330000Y-67755000D03*
D15*
X88330000Y-65215000D03*
X90870000Y-67755000D03*
X90870000Y-65215000D03*
X93410000Y-67755000D03*
X93410000Y-65215000D03*
X95950000Y-67755000D03*
X95950000Y-65215000D03*
X98490000Y-67755000D03*
X98490000Y-65215000D03*
X101030000Y-67755000D03*
X101030000Y-65215000D03*
X103570000Y-67755000D03*
X103570000Y-65215000D03*
X106110000Y-67755000D03*
X106110000Y-65215000D03*
X108650000Y-67755000D03*
X108650000Y-65215000D03*
X111190000Y-67755000D03*
X111190000Y-65215000D03*
X113730000Y-67755000D03*
X113730000Y-65215000D03*
X116270000Y-67755000D03*
X116270000Y-65215000D03*
X118810000Y-67755000D03*
X118810000Y-65215000D03*
X121350000Y-67755000D03*
X121350000Y-65215000D03*
X123890000Y-67755000D03*
X123890000Y-65215000D03*
X126430000Y-67755000D03*
X126430000Y-65215000D03*
X128970000Y-67755000D03*
X128970000Y-65215000D03*
X131510000Y-67755000D03*
X131510000Y-65215000D03*
X134050000Y-67755000D03*
X134050000Y-65215000D03*
X136590000Y-67755000D03*
X136590000Y-65215000D03*
D17*
X109728000Y-70612000D03*
X170307000Y-83312000D03*
X157988000Y-85090000D03*
X161036000Y-83312000D03*
D18*
X176223800Y-81447000D02*
X176234000Y-81436800D01*
X107349999Y-69055001D02*
X108650000Y-67755000D01*
X89630001Y-69055001D02*
X107349999Y-69055001D01*
X88330000Y-67755000D02*
X89630001Y-69055001D01*
X157458500Y-81637500D02*
X157496000Y-81600000D01*
X155067000Y-81637500D02*
X157458500Y-81637500D01*
X163994500Y-81600000D02*
X164084000Y-81510500D01*
X157496000Y-81600000D02*
X163994500Y-81600000D01*
X164121500Y-81473000D02*
X164084000Y-81510500D01*
X166513000Y-81473000D02*
X164121500Y-81473000D01*
X173825500Y-81473000D02*
X173863000Y-81510500D01*
X166513000Y-81473000D02*
X173825500Y-81473000D01*
X176196500Y-81510500D02*
X176234000Y-81473000D01*
X173863000Y-81510500D02*
X176196500Y-81510500D01*
X122532500Y-81637500D02*
X122428500Y-81533500D01*
X155067000Y-81637500D02*
X122532500Y-81637500D01*
X108650000Y-67755000D02*
X122428500Y-81533500D01*
X176169200Y-83272000D02*
X176234000Y-83336800D01*
X176196500Y-83335500D02*
X176234000Y-83373000D01*
X173863000Y-83335500D02*
X176196500Y-83335500D01*
X157458500Y-83462500D02*
X157496000Y-83500000D01*
X155067000Y-83462500D02*
X157458500Y-83462500D01*
D19*
X173863000Y-83335500D02*
X170330500Y-83335500D01*
X170330500Y-83335500D02*
X170307000Y-83312000D01*
X156694500Y-85090000D02*
X155067000Y-83462500D01*
X157988000Y-85090000D02*
X156694500Y-85090000D01*
X122578500Y-83462500D02*
X122428000Y-83312000D01*
X155067000Y-83462500D02*
X122578500Y-83462500D01*
X122428000Y-83312000D02*
X109728000Y-70612000D01*
D18*
X166475500Y-83335500D02*
X166513000Y-83373000D01*
X164084000Y-83335500D02*
X166475500Y-83335500D01*
D19*
X164084000Y-83335500D02*
X161059500Y-83335500D01*
X161059500Y-83335500D02*
X161036000Y-83312000D01*
D18*
X159496000Y-89014000D02*
X155030000Y-93480000D01*
X159496000Y-82550000D02*
X159496000Y-89014000D01*
X168513000Y-96817000D02*
X161850000Y-103480000D01*
X168513000Y-82423000D02*
X168513000Y-96817000D01*
X178234000Y-89636000D02*
X164390000Y-103480000D01*
X178234000Y-82423000D02*
X178234000Y-89636000D01*
D20*
X178383893Y-56587670D02*
X178570934Y-56644141D01*
X180217194Y-58403937D01*
X180219106Y-58410113D01*
X180270000Y-58894344D01*
X180270001Y-106347711D01*
X180222330Y-106833894D01*
X180124435Y-107158140D01*
X178557975Y-108620169D01*
X178399886Y-108669106D01*
X177915664Y-108720000D01*
X81962279Y-108720000D01*
X81504744Y-108675138D01*
X79636361Y-106806755D01*
X79590000Y-106365664D01*
X79590000Y-104502285D01*
X79595000Y-104502285D01*
X79595000Y-105257715D01*
X79742377Y-105998628D01*
X80031467Y-106696554D01*
X80451161Y-107324670D01*
X80985330Y-107858839D01*
X81613446Y-108278533D01*
X82311372Y-108567623D01*
X83052285Y-108715000D01*
X83807715Y-108715000D01*
X84548628Y-108567623D01*
X85246554Y-108278533D01*
X85874670Y-107858839D01*
X86408839Y-107324670D01*
X86828533Y-106696554D01*
X87117623Y-105998628D01*
X87265000Y-105257715D01*
X87265000Y-104502285D01*
X148095000Y-104502285D01*
X148095000Y-105257715D01*
X148242377Y-105998628D01*
X148531467Y-106696554D01*
X148951161Y-107324670D01*
X149485330Y-107858839D01*
X150113446Y-108278533D01*
X150811372Y-108567623D01*
X151552285Y-108715000D01*
X152307715Y-108715000D01*
X153048628Y-108567623D01*
X153746554Y-108278533D01*
X154374670Y-107858839D01*
X154908839Y-107324670D01*
X155328533Y-106696554D01*
X155617623Y-105998628D01*
X155765000Y-105257715D01*
X155765000Y-104502285D01*
X155617623Y-103761372D01*
X155328533Y-103063446D01*
X154908839Y-102435330D01*
X154374670Y-101901161D01*
X153746554Y-101481467D01*
X153048628Y-101192377D01*
X152307715Y-101045000D01*
X151552285Y-101045000D01*
X150811372Y-101192377D01*
X150113446Y-101481467D01*
X149485330Y-101901161D01*
X148951161Y-102435330D01*
X148531467Y-103063446D01*
X148242377Y-103761372D01*
X148095000Y-104502285D01*
X87265000Y-104502285D01*
X87117623Y-103761372D01*
X86828533Y-103063446D01*
X86408839Y-102435330D01*
X85874670Y-101901161D01*
X85246554Y-101481467D01*
X84548628Y-101192377D01*
X83807715Y-101045000D01*
X83052285Y-101045000D01*
X82311372Y-101192377D01*
X81613446Y-101481467D01*
X80985330Y-101901161D01*
X80451161Y-102435330D01*
X80031467Y-103063446D01*
X79742377Y-103761372D01*
X79595000Y-104502285D01*
X79590000Y-104502285D01*
X79590000Y-98398967D01*
X149595000Y-98398967D01*
X149595000Y-98721033D01*
X149657832Y-99036912D01*
X149781082Y-99334463D01*
X149960013Y-99602252D01*
X150187748Y-99829987D01*
X150455537Y-100008918D01*
X150753088Y-100132168D01*
X151068967Y-100195000D01*
X151391033Y-100195000D01*
X151706912Y-100132168D01*
X152004463Y-100008918D01*
X152272252Y-99829987D01*
X152499987Y-99602252D01*
X152678918Y-99334463D01*
X152802168Y-99036912D01*
X152865000Y-98721033D01*
X152865000Y-98398967D01*
X159755000Y-98398967D01*
X159755000Y-98721033D01*
X159817832Y-99036912D01*
X159941082Y-99334463D01*
X160120013Y-99602252D01*
X160347748Y-99829987D01*
X160615537Y-100008918D01*
X160913088Y-100132168D01*
X161228967Y-100195000D01*
X161551033Y-100195000D01*
X161866912Y-100132168D01*
X162164463Y-100008918D01*
X162432252Y-99829987D01*
X162659987Y-99602252D01*
X162838918Y-99334463D01*
X162962168Y-99036912D01*
X163025000Y-98721033D01*
X163025000Y-98398967D01*
X162962168Y-98083088D01*
X162838918Y-97785537D01*
X162659987Y-97517748D01*
X162432252Y-97290013D01*
X162164463Y-97111082D01*
X161866912Y-96987832D01*
X161551033Y-96925000D01*
X161228967Y-96925000D01*
X160913088Y-96987832D01*
X160615537Y-97111082D01*
X160347748Y-97290013D01*
X160120013Y-97517748D01*
X159941082Y-97785537D01*
X159817832Y-98083088D01*
X159755000Y-98398967D01*
X152865000Y-98398967D01*
X152802168Y-98083088D01*
X152678918Y-97785537D01*
X152499987Y-97517748D01*
X152272252Y-97290013D01*
X152004463Y-97111082D01*
X151706912Y-96987832D01*
X151391033Y-96925000D01*
X151068967Y-96925000D01*
X150753088Y-96987832D01*
X150455537Y-97111082D01*
X150187748Y-97290013D01*
X149960013Y-97517748D01*
X149781082Y-97785537D01*
X149657832Y-98083088D01*
X149595000Y-98398967D01*
X79590000Y-98398967D01*
X79590000Y-88238967D01*
X149595000Y-88238967D01*
X149595000Y-88561033D01*
X149657832Y-88876912D01*
X149781082Y-89174463D01*
X149960013Y-89442252D01*
X150187748Y-89669987D01*
X150455537Y-89848918D01*
X150753088Y-89972168D01*
X151068967Y-90035000D01*
X151391033Y-90035000D01*
X151706912Y-89972168D01*
X152004463Y-89848918D01*
X152272252Y-89669987D01*
X152499987Y-89442252D01*
X152678918Y-89174463D01*
X152802168Y-88876912D01*
X152865000Y-88561033D01*
X152865000Y-88238967D01*
X152802168Y-87923088D01*
X152678918Y-87625537D01*
X152499987Y-87357748D01*
X152272252Y-87130013D01*
X152004463Y-86951082D01*
X151706912Y-86827832D01*
X151391033Y-86765000D01*
X151068967Y-86765000D01*
X150753088Y-86827832D01*
X150455537Y-86951082D01*
X150187748Y-87130013D01*
X149960013Y-87357748D01*
X149781082Y-87625537D01*
X149657832Y-87923088D01*
X149595000Y-88238967D01*
X79590000Y-88238967D01*
X79590000Y-66905000D01*
X86841928Y-66905000D01*
X86841928Y-68605000D01*
X86854188Y-68729482D01*
X86890498Y-68849180D01*
X86949463Y-68959494D01*
X87028815Y-69056185D01*
X87125506Y-69135537D01*
X87235820Y-69194502D01*
X87355518Y-69230812D01*
X87480000Y-69243072D01*
X88566493Y-69243072D01*
X88973471Y-69650050D01*
X89001184Y-69683818D01*
X89034952Y-69711531D01*
X89034954Y-69711533D01*
X89106453Y-69770211D01*
X89135942Y-69794412D01*
X89289688Y-69876590D01*
X89456511Y-69927196D01*
X89586524Y-69940001D01*
X89586534Y-69940001D01*
X89630000Y-69944282D01*
X89673467Y-69940001D01*
X107306530Y-69940001D01*
X107349999Y-69944282D01*
X107393468Y-69940001D01*
X107393476Y-69940001D01*
X107523489Y-69927196D01*
X107690312Y-69876590D01*
X107844058Y-69794412D01*
X107978816Y-69683818D01*
X108006533Y-69650045D01*
X108431039Y-69225539D01*
X108503740Y-69240000D01*
X108796260Y-69240000D01*
X108868961Y-69225539D01*
X109308789Y-69665367D01*
X109237744Y-69694795D01*
X109068226Y-69808063D01*
X108924063Y-69952226D01*
X108810795Y-70121744D01*
X108732774Y-70310102D01*
X108693000Y-70510061D01*
X108693000Y-70713939D01*
X108732774Y-70913898D01*
X108810795Y-71102256D01*
X108924063Y-71271774D01*
X109068226Y-71415937D01*
X109237744Y-71529205D01*
X109426102Y-71607226D01*
X109626061Y-71647000D01*
X109688199Y-71647000D01*
X121916997Y-83875799D01*
X121917003Y-83875804D01*
X122014696Y-83973497D01*
X122038499Y-84002501D01*
X122154224Y-84097474D01*
X122286253Y-84168046D01*
X122429514Y-84211503D01*
X122541167Y-84222500D01*
X122541176Y-84222500D01*
X122578499Y-84226176D01*
X122615822Y-84222500D01*
X153881970Y-84222500D01*
X153989038Y-84352962D01*
X154123613Y-84463405D01*
X154277149Y-84545472D01*
X154443745Y-84596008D01*
X154616999Y-84613072D01*
X155142771Y-84613072D01*
X156130701Y-85601003D01*
X156154499Y-85630001D01*
X156183497Y-85653799D01*
X156270224Y-85724974D01*
X156402253Y-85795546D01*
X156545514Y-85839003D01*
X156694500Y-85853677D01*
X156731833Y-85850000D01*
X157284289Y-85850000D01*
X157328226Y-85893937D01*
X157497744Y-86007205D01*
X157686102Y-86085226D01*
X157886061Y-86125000D01*
X158089939Y-86125000D01*
X158289898Y-86085226D01*
X158478256Y-86007205D01*
X158611001Y-85918508D01*
X158611001Y-88647420D01*
X156161742Y-91096679D01*
X155798601Y-90946261D01*
X155289525Y-90845000D01*
X154770475Y-90845000D01*
X154261399Y-90946261D01*
X153781859Y-91144893D01*
X153350285Y-91433262D01*
X152983262Y-91800285D01*
X152694893Y-92231859D01*
X152496261Y-92711399D01*
X152395000Y-93220475D01*
X152395000Y-93739525D01*
X152496261Y-94248601D01*
X152694893Y-94728141D01*
X152983262Y-95159715D01*
X153350285Y-95526738D01*
X153781859Y-95815107D01*
X154261399Y-96013739D01*
X154770475Y-96115000D01*
X155289525Y-96115000D01*
X155798601Y-96013739D01*
X156278141Y-95815107D01*
X156709715Y-95526738D01*
X157076738Y-95159715D01*
X157365107Y-94728141D01*
X157563739Y-94248601D01*
X157665000Y-93739525D01*
X157665000Y-93220475D01*
X157563739Y-92711399D01*
X157413321Y-92348258D01*
X160091049Y-89670530D01*
X160124817Y-89642817D01*
X160213058Y-89535297D01*
X160347748Y-89669987D01*
X160615537Y-89848918D01*
X160913088Y-89972168D01*
X161228967Y-90035000D01*
X161551033Y-90035000D01*
X161866912Y-89972168D01*
X162164463Y-89848918D01*
X162432252Y-89669987D01*
X162659987Y-89442252D01*
X162838918Y-89174463D01*
X162962168Y-88876912D01*
X163025000Y-88561033D01*
X163025000Y-88238967D01*
X162962168Y-87923088D01*
X162838918Y-87625537D01*
X162659987Y-87357748D01*
X162432252Y-87130013D01*
X162164463Y-86951082D01*
X161866912Y-86827832D01*
X161551033Y-86765000D01*
X161228967Y-86765000D01*
X160913088Y-86827832D01*
X160615537Y-86951082D01*
X160381000Y-87107795D01*
X160381000Y-84119127D01*
X160545744Y-84229205D01*
X160734102Y-84307226D01*
X160934061Y-84347000D01*
X161137939Y-84347000D01*
X161337898Y-84307226D01*
X161526256Y-84229205D01*
X161695774Y-84115937D01*
X161716211Y-84095500D01*
X162898970Y-84095500D01*
X163006038Y-84225962D01*
X163140613Y-84336405D01*
X163294149Y-84418472D01*
X163460745Y-84469008D01*
X163633999Y-84486072D01*
X164534001Y-84486072D01*
X164707255Y-84469008D01*
X164873851Y-84418472D01*
X165027387Y-84336405D01*
X165161962Y-84225962D01*
X165166445Y-84220500D01*
X165608791Y-84220500D01*
X165611815Y-84224185D01*
X165708506Y-84303537D01*
X165818820Y-84362502D01*
X165938518Y-84398812D01*
X166063000Y-84411072D01*
X166963000Y-84411072D01*
X167087482Y-84398812D01*
X167207180Y-84362502D01*
X167317494Y-84303537D01*
X167414185Y-84224185D01*
X167493537Y-84127494D01*
X167552502Y-84017180D01*
X167588812Y-83897482D01*
X167601072Y-83773000D01*
X167601072Y-83261095D01*
X167611815Y-83274185D01*
X167628000Y-83287468D01*
X167628001Y-96450420D01*
X162068961Y-102009461D01*
X161996260Y-101995000D01*
X161703740Y-101995000D01*
X161416842Y-102052068D01*
X161146589Y-102164010D01*
X160903368Y-102326525D01*
X160696525Y-102533368D01*
X160534010Y-102776589D01*
X160422068Y-103046842D01*
X160365000Y-103333740D01*
X160365000Y-103626260D01*
X160422068Y-103913158D01*
X160534010Y-104183411D01*
X160696525Y-104426632D01*
X160903368Y-104633475D01*
X161146589Y-104795990D01*
X161416842Y-104907932D01*
X161703740Y-104965000D01*
X161996260Y-104965000D01*
X162283158Y-104907932D01*
X162553411Y-104795990D01*
X162796632Y-104633475D01*
X163003475Y-104426632D01*
X163120000Y-104252240D01*
X163236525Y-104426632D01*
X163443368Y-104633475D01*
X163686589Y-104795990D01*
X163956842Y-104907932D01*
X164243740Y-104965000D01*
X164536260Y-104965000D01*
X164823158Y-104907932D01*
X165093411Y-104795990D01*
X165336632Y-104633475D01*
X165468487Y-104501620D01*
X165490498Y-104574180D01*
X165549463Y-104684494D01*
X165628815Y-104781185D01*
X165725506Y-104860537D01*
X165835820Y-104919502D01*
X165955518Y-104955812D01*
X166080000Y-104968072D01*
X166644250Y-104965000D01*
X166803000Y-104806250D01*
X166803000Y-103607000D01*
X167057000Y-103607000D01*
X167057000Y-104806250D01*
X167215750Y-104965000D01*
X167780000Y-104968072D01*
X167904482Y-104955812D01*
X168024180Y-104919502D01*
X168134494Y-104860537D01*
X168231185Y-104781185D01*
X168310537Y-104684494D01*
X168369502Y-104574180D01*
X168391311Y-104502285D01*
X172595000Y-104502285D01*
X172595000Y-105257715D01*
X172742377Y-105998628D01*
X173031467Y-106696554D01*
X173451161Y-107324670D01*
X173985330Y-107858839D01*
X174613446Y-108278533D01*
X175311372Y-108567623D01*
X176052285Y-108715000D01*
X176807715Y-108715000D01*
X177548628Y-108567623D01*
X178246554Y-108278533D01*
X178874670Y-107858839D01*
X179408839Y-107324670D01*
X179828533Y-106696554D01*
X180117623Y-105998628D01*
X180265000Y-105257715D01*
X180265000Y-104502285D01*
X180117623Y-103761372D01*
X179828533Y-103063446D01*
X179408839Y-102435330D01*
X178874670Y-101901161D01*
X178246554Y-101481467D01*
X177548628Y-101192377D01*
X176807715Y-101045000D01*
X176052285Y-101045000D01*
X175311372Y-101192377D01*
X174613446Y-101481467D01*
X173985330Y-101901161D01*
X173451161Y-102435330D01*
X173031467Y-103063446D01*
X172742377Y-103761372D01*
X172595000Y-104502285D01*
X168391311Y-104502285D01*
X168405812Y-104454482D01*
X168418072Y-104330000D01*
X168415000Y-103765750D01*
X168256250Y-103607000D01*
X167057000Y-103607000D01*
X166803000Y-103607000D01*
X166783000Y-103607000D01*
X166783000Y-103353000D01*
X166803000Y-103353000D01*
X166803000Y-103333000D01*
X167057000Y-103333000D01*
X167057000Y-103353000D01*
X168256250Y-103353000D01*
X168415000Y-103194250D01*
X168418072Y-102630000D01*
X168405812Y-102505518D01*
X168369502Y-102385820D01*
X168310537Y-102275506D01*
X168231185Y-102178815D01*
X168134494Y-102099463D01*
X168024180Y-102040498D01*
X167904482Y-102004188D01*
X167780000Y-101991928D01*
X167215750Y-101995000D01*
X167057002Y-102153748D01*
X167057002Y-102064576D01*
X178829049Y-90292530D01*
X178862817Y-90264817D01*
X178973411Y-90130059D01*
X179024221Y-90035000D01*
X179055589Y-89976314D01*
X179106195Y-89809490D01*
X179111718Y-89753411D01*
X179119000Y-89679477D01*
X179119000Y-89679469D01*
X179123281Y-89636000D01*
X179119000Y-89592531D01*
X179119000Y-83287468D01*
X179135185Y-83274185D01*
X179214537Y-83177494D01*
X179273502Y-83067180D01*
X179309812Y-82947482D01*
X179322072Y-82823000D01*
X179322072Y-82023000D01*
X179309812Y-81898518D01*
X179273502Y-81778820D01*
X179214537Y-81668506D01*
X179135185Y-81571815D01*
X179038494Y-81492463D01*
X178928180Y-81433498D01*
X178808482Y-81397188D01*
X178684000Y-81384928D01*
X177784000Y-81384928D01*
X177659518Y-81397188D01*
X177539820Y-81433498D01*
X177429506Y-81492463D01*
X177332815Y-81571815D01*
X177322072Y-81584905D01*
X177322072Y-81073000D01*
X177309812Y-80948518D01*
X177273502Y-80828820D01*
X177214537Y-80718506D01*
X177135185Y-80621815D01*
X177038494Y-80542463D01*
X176928180Y-80483498D01*
X176808482Y-80447188D01*
X176684000Y-80434928D01*
X175784000Y-80434928D01*
X175659518Y-80447188D01*
X175539820Y-80483498D01*
X175429506Y-80542463D01*
X175332815Y-80621815D01*
X175329791Y-80625500D01*
X174945445Y-80625500D01*
X174940962Y-80620038D01*
X174806387Y-80509595D01*
X174652851Y-80427528D01*
X174486255Y-80376992D01*
X174313001Y-80359928D01*
X173412999Y-80359928D01*
X173239745Y-80376992D01*
X173073149Y-80427528D01*
X172919613Y-80509595D01*
X172824076Y-80588000D01*
X167372981Y-80588000D01*
X167317494Y-80542463D01*
X167207180Y-80483498D01*
X167087482Y-80447188D01*
X166963000Y-80434928D01*
X166063000Y-80434928D01*
X165938518Y-80447188D01*
X165818820Y-80483498D01*
X165708506Y-80542463D01*
X165653019Y-80588000D01*
X165122924Y-80588000D01*
X165027387Y-80509595D01*
X164873851Y-80427528D01*
X164707255Y-80376992D01*
X164534001Y-80359928D01*
X163633999Y-80359928D01*
X163460745Y-80376992D01*
X163294149Y-80427528D01*
X163140613Y-80509595D01*
X163006038Y-80620038D01*
X162928105Y-80715000D01*
X158355981Y-80715000D01*
X158300494Y-80669463D01*
X158190180Y-80610498D01*
X158070482Y-80574188D01*
X157946000Y-80561928D01*
X157046000Y-80561928D01*
X156921518Y-80574188D01*
X156801820Y-80610498D01*
X156691506Y-80669463D01*
X156594815Y-80748815D01*
X156591791Y-80752500D01*
X156149445Y-80752500D01*
X156144962Y-80747038D01*
X156010387Y-80636595D01*
X155856851Y-80554528D01*
X155690255Y-80503992D01*
X155517001Y-80486928D01*
X154616999Y-80486928D01*
X154443745Y-80503992D01*
X154277149Y-80554528D01*
X154123613Y-80636595D01*
X153989038Y-80747038D01*
X153984555Y-80752500D01*
X122899079Y-80752500D01*
X118545546Y-76398967D01*
X149595000Y-76398967D01*
X149595000Y-76721033D01*
X149657832Y-77036912D01*
X149781082Y-77334463D01*
X149960013Y-77602252D01*
X150187748Y-77829987D01*
X150455537Y-78008918D01*
X150753088Y-78132168D01*
X151068967Y-78195000D01*
X151391033Y-78195000D01*
X151706912Y-78132168D01*
X152004463Y-78008918D01*
X152272252Y-77829987D01*
X152499987Y-77602252D01*
X152678918Y-77334463D01*
X152802168Y-77036912D01*
X152865000Y-76721033D01*
X152865000Y-76398967D01*
X159755000Y-76398967D01*
X159755000Y-76721033D01*
X159817832Y-77036912D01*
X159941082Y-77334463D01*
X160120013Y-77602252D01*
X160347748Y-77829987D01*
X160615537Y-78008918D01*
X160913088Y-78132168D01*
X161228967Y-78195000D01*
X161551033Y-78195000D01*
X161866912Y-78132168D01*
X162164463Y-78008918D01*
X162432252Y-77829987D01*
X162659987Y-77602252D01*
X162838918Y-77334463D01*
X162962168Y-77036912D01*
X163025000Y-76721033D01*
X163025000Y-76398967D01*
X162962168Y-76083088D01*
X162838918Y-75785537D01*
X162659987Y-75517748D01*
X162432252Y-75290013D01*
X162164463Y-75111082D01*
X161866912Y-74987832D01*
X161551033Y-74925000D01*
X161228967Y-74925000D01*
X160913088Y-74987832D01*
X160615537Y-75111082D01*
X160347748Y-75290013D01*
X160120013Y-75517748D01*
X159941082Y-75785537D01*
X159817832Y-76083088D01*
X159755000Y-76398967D01*
X152865000Y-76398967D01*
X152802168Y-76083088D01*
X152678918Y-75785537D01*
X152499987Y-75517748D01*
X152272252Y-75290013D01*
X152004463Y-75111082D01*
X151706912Y-74987832D01*
X151391033Y-74925000D01*
X151068967Y-74925000D01*
X150753088Y-74987832D01*
X150455537Y-75111082D01*
X150187748Y-75290013D01*
X149960013Y-75517748D01*
X149781082Y-75785537D01*
X149657832Y-76083088D01*
X149595000Y-76398967D01*
X118545546Y-76398967D01*
X115474078Y-73327499D01*
X153362106Y-73327499D01*
X153578228Y-73694258D01*
X154038105Y-73934938D01*
X154536098Y-74081275D01*
X155053071Y-74127648D01*
X155569159Y-74072273D01*
X156064526Y-73917279D01*
X156481772Y-73694258D01*
X156697894Y-73327499D01*
X155030000Y-71659605D01*
X153362106Y-73327499D01*
X115474078Y-73327499D01*
X113649650Y-71503071D01*
X152382352Y-71503071D01*
X152437727Y-72019159D01*
X152592721Y-72514526D01*
X152815742Y-72931772D01*
X153182501Y-73147894D01*
X154850395Y-71480000D01*
X155209605Y-71480000D01*
X156877499Y-73147894D01*
X157244258Y-72931772D01*
X157484938Y-72471895D01*
X157631275Y-71973902D01*
X157677648Y-71456929D01*
X157622273Y-70940841D01*
X157467279Y-70445474D01*
X157244258Y-70028228D01*
X156877499Y-69812106D01*
X155209605Y-71480000D01*
X154850395Y-71480000D01*
X153182501Y-69812106D01*
X152815742Y-70028228D01*
X152575062Y-70488105D01*
X152428725Y-70986098D01*
X152382352Y-71503071D01*
X113649650Y-71503071D01*
X111779080Y-69632501D01*
X153362106Y-69632501D01*
X155030000Y-71300395D01*
X156697894Y-69632501D01*
X156481772Y-69265742D01*
X156021895Y-69025062D01*
X155523902Y-68878725D01*
X155006929Y-68832352D01*
X154490841Y-68887727D01*
X153995474Y-69042721D01*
X153578228Y-69265742D01*
X153362106Y-69632501D01*
X111779080Y-69632501D01*
X111378230Y-69231652D01*
X111623158Y-69182932D01*
X111893411Y-69070990D01*
X112136632Y-68908475D01*
X112343475Y-68701632D01*
X112460000Y-68527240D01*
X112576525Y-68701632D01*
X112783368Y-68908475D01*
X113026589Y-69070990D01*
X113296842Y-69182932D01*
X113583740Y-69240000D01*
X113876260Y-69240000D01*
X114163158Y-69182932D01*
X114433411Y-69070990D01*
X114676632Y-68908475D01*
X114883475Y-68701632D01*
X115000000Y-68527240D01*
X115116525Y-68701632D01*
X115323368Y-68908475D01*
X115566589Y-69070990D01*
X115836842Y-69182932D01*
X116123740Y-69240000D01*
X116416260Y-69240000D01*
X116703158Y-69182932D01*
X116973411Y-69070990D01*
X117216632Y-68908475D01*
X117423475Y-68701632D01*
X117545195Y-68519466D01*
X117614822Y-68636355D01*
X117809731Y-68852588D01*
X118043080Y-69026641D01*
X118305901Y-69151825D01*
X118453110Y-69196476D01*
X118683000Y-69075155D01*
X118683000Y-67882000D01*
X118663000Y-67882000D01*
X118663000Y-67628000D01*
X118683000Y-67628000D01*
X118683000Y-67608000D01*
X118937000Y-67608000D01*
X118937000Y-67628000D01*
X118957000Y-67628000D01*
X118957000Y-67882000D01*
X118937000Y-67882000D01*
X118937000Y-69075155D01*
X119166890Y-69196476D01*
X119314099Y-69151825D01*
X119576920Y-69026641D01*
X119810269Y-68852588D01*
X120005178Y-68636355D01*
X120074805Y-68519466D01*
X120196525Y-68701632D01*
X120403368Y-68908475D01*
X120646589Y-69070990D01*
X120916842Y-69182932D01*
X121203740Y-69240000D01*
X121496260Y-69240000D01*
X121783158Y-69182932D01*
X122053411Y-69070990D01*
X122296632Y-68908475D01*
X122503475Y-68701632D01*
X122620000Y-68527240D01*
X122736525Y-68701632D01*
X122943368Y-68908475D01*
X123186589Y-69070990D01*
X123456842Y-69182932D01*
X123743740Y-69240000D01*
X124036260Y-69240000D01*
X124323158Y-69182932D01*
X124593411Y-69070990D01*
X124836632Y-68908475D01*
X125043475Y-68701632D01*
X125160000Y-68527240D01*
X125276525Y-68701632D01*
X125483368Y-68908475D01*
X125726589Y-69070990D01*
X125996842Y-69182932D01*
X126283740Y-69240000D01*
X126576260Y-69240000D01*
X126863158Y-69182932D01*
X127133411Y-69070990D01*
X127376632Y-68908475D01*
X127583475Y-68701632D01*
X127700000Y-68527240D01*
X127816525Y-68701632D01*
X128023368Y-68908475D01*
X128266589Y-69070990D01*
X128536842Y-69182932D01*
X128823740Y-69240000D01*
X129116260Y-69240000D01*
X129403158Y-69182932D01*
X129673411Y-69070990D01*
X129916632Y-68908475D01*
X130123475Y-68701632D01*
X130240000Y-68527240D01*
X130356525Y-68701632D01*
X130563368Y-68908475D01*
X130806589Y-69070990D01*
X131076842Y-69182932D01*
X131363740Y-69240000D01*
X131656260Y-69240000D01*
X131943158Y-69182932D01*
X132213411Y-69070990D01*
X132456632Y-68908475D01*
X132663475Y-68701632D01*
X132780000Y-68527240D01*
X132896525Y-68701632D01*
X133103368Y-68908475D01*
X133346589Y-69070990D01*
X133616842Y-69182932D01*
X133903740Y-69240000D01*
X134196260Y-69240000D01*
X134483158Y-69182932D01*
X134753411Y-69070990D01*
X134996632Y-68908475D01*
X135203475Y-68701632D01*
X135325195Y-68519466D01*
X135394822Y-68636355D01*
X135589731Y-68852588D01*
X135823080Y-69026641D01*
X136085901Y-69151825D01*
X136233110Y-69196476D01*
X136463000Y-69075155D01*
X136463000Y-67882000D01*
X136717000Y-67882000D01*
X136717000Y-69075155D01*
X136946890Y-69196476D01*
X137094099Y-69151825D01*
X137356920Y-69026641D01*
X137590269Y-68852588D01*
X137785178Y-68636355D01*
X137934157Y-68386252D01*
X138031481Y-68111891D01*
X137910814Y-67882000D01*
X136717000Y-67882000D01*
X136463000Y-67882000D01*
X136443000Y-67882000D01*
X136443000Y-67628000D01*
X136463000Y-67628000D01*
X136463000Y-67608000D01*
X136717000Y-67608000D01*
X136717000Y-67628000D01*
X137910814Y-67628000D01*
X138031481Y-67398109D01*
X137934157Y-67123748D01*
X137785178Y-66873645D01*
X137590269Y-66657412D01*
X137360594Y-66486100D01*
X137536632Y-66368475D01*
X137666140Y-66238967D01*
X149595000Y-66238967D01*
X149595000Y-66561033D01*
X149657832Y-66876912D01*
X149781082Y-67174463D01*
X149960013Y-67442252D01*
X150187748Y-67669987D01*
X150455537Y-67848918D01*
X150753088Y-67972168D01*
X151068967Y-68035000D01*
X151391033Y-68035000D01*
X151706912Y-67972168D01*
X152004463Y-67848918D01*
X152272252Y-67669987D01*
X152499987Y-67442252D01*
X152678918Y-67174463D01*
X152802168Y-66876912D01*
X152865000Y-66561033D01*
X152865000Y-66238967D01*
X159755000Y-66238967D01*
X159755000Y-66561033D01*
X159817832Y-66876912D01*
X159941082Y-67174463D01*
X160120013Y-67442252D01*
X160347748Y-67669987D01*
X160615537Y-67848918D01*
X160913088Y-67972168D01*
X161228967Y-68035000D01*
X161551033Y-68035000D01*
X161866912Y-67972168D01*
X162164463Y-67848918D01*
X162432252Y-67669987D01*
X162659987Y-67442252D01*
X162838918Y-67174463D01*
X162962168Y-66876912D01*
X163025000Y-66561033D01*
X163025000Y-66238967D01*
X162962168Y-65923088D01*
X162838918Y-65625537D01*
X162659987Y-65357748D01*
X162432252Y-65130013D01*
X162164463Y-64951082D01*
X161866912Y-64827832D01*
X161551033Y-64765000D01*
X161228967Y-64765000D01*
X160913088Y-64827832D01*
X160615537Y-64951082D01*
X160347748Y-65130013D01*
X160120013Y-65357748D01*
X159941082Y-65625537D01*
X159817832Y-65923088D01*
X159755000Y-66238967D01*
X152865000Y-66238967D01*
X152802168Y-65923088D01*
X152678918Y-65625537D01*
X152499987Y-65357748D01*
X152272252Y-65130013D01*
X152004463Y-64951082D01*
X151706912Y-64827832D01*
X151391033Y-64765000D01*
X151068967Y-64765000D01*
X150753088Y-64827832D01*
X150455537Y-64951082D01*
X150187748Y-65130013D01*
X149960013Y-65357748D01*
X149781082Y-65625537D01*
X149657832Y-65923088D01*
X149595000Y-66238967D01*
X137666140Y-66238967D01*
X137743475Y-66161632D01*
X137905990Y-65918411D01*
X138017932Y-65648158D01*
X138075000Y-65361260D01*
X138075000Y-65068740D01*
X138017932Y-64781842D01*
X137905990Y-64511589D01*
X137743475Y-64268368D01*
X137536632Y-64061525D01*
X137293411Y-63899010D01*
X137023158Y-63787068D01*
X136736260Y-63730000D01*
X136443740Y-63730000D01*
X136156842Y-63787068D01*
X135886589Y-63899010D01*
X135643368Y-64061525D01*
X135436525Y-64268368D01*
X135320000Y-64442760D01*
X135203475Y-64268368D01*
X134996632Y-64061525D01*
X134753411Y-63899010D01*
X134483158Y-63787068D01*
X134196260Y-63730000D01*
X133903740Y-63730000D01*
X133616842Y-63787068D01*
X133346589Y-63899010D01*
X133103368Y-64061525D01*
X132896525Y-64268368D01*
X132780000Y-64442760D01*
X132663475Y-64268368D01*
X132456632Y-64061525D01*
X132213411Y-63899010D01*
X131943158Y-63787068D01*
X131656260Y-63730000D01*
X131363740Y-63730000D01*
X131076842Y-63787068D01*
X130806589Y-63899010D01*
X130563368Y-64061525D01*
X130356525Y-64268368D01*
X130234805Y-64450534D01*
X130165178Y-64333645D01*
X129970269Y-64117412D01*
X129736920Y-63943359D01*
X129474099Y-63818175D01*
X129326890Y-63773524D01*
X129097000Y-63894845D01*
X129097000Y-65088000D01*
X129117000Y-65088000D01*
X129117000Y-65342000D01*
X129097000Y-65342000D01*
X129097000Y-65362000D01*
X128843000Y-65362000D01*
X128843000Y-65342000D01*
X128823000Y-65342000D01*
X128823000Y-65088000D01*
X128843000Y-65088000D01*
X128843000Y-63894845D01*
X128613110Y-63773524D01*
X128465901Y-63818175D01*
X128203080Y-63943359D01*
X127969731Y-64117412D01*
X127774822Y-64333645D01*
X127705195Y-64450534D01*
X127583475Y-64268368D01*
X127376632Y-64061525D01*
X127133411Y-63899010D01*
X126863158Y-63787068D01*
X126576260Y-63730000D01*
X126283740Y-63730000D01*
X125996842Y-63787068D01*
X125726589Y-63899010D01*
X125483368Y-64061525D01*
X125276525Y-64268368D01*
X125154805Y-64450534D01*
X125085178Y-64333645D01*
X124890269Y-64117412D01*
X124656920Y-63943359D01*
X124394099Y-63818175D01*
X124246890Y-63773524D01*
X124017000Y-63894845D01*
X124017000Y-65088000D01*
X124037000Y-65088000D01*
X124037000Y-65342000D01*
X124017000Y-65342000D01*
X124017000Y-65362000D01*
X123763000Y-65362000D01*
X123763000Y-65342000D01*
X123743000Y-65342000D01*
X123743000Y-65088000D01*
X123763000Y-65088000D01*
X123763000Y-63894845D01*
X123533110Y-63773524D01*
X123385901Y-63818175D01*
X123123080Y-63943359D01*
X122889731Y-64117412D01*
X122694822Y-64333645D01*
X122625195Y-64450534D01*
X122503475Y-64268368D01*
X122296632Y-64061525D01*
X122053411Y-63899010D01*
X121783158Y-63787068D01*
X121496260Y-63730000D01*
X121203740Y-63730000D01*
X120916842Y-63787068D01*
X120646589Y-63899010D01*
X120403368Y-64061525D01*
X120196525Y-64268368D01*
X120080000Y-64442760D01*
X119963475Y-64268368D01*
X119756632Y-64061525D01*
X119513411Y-63899010D01*
X119243158Y-63787068D01*
X118956260Y-63730000D01*
X118663740Y-63730000D01*
X118376842Y-63787068D01*
X118106589Y-63899010D01*
X117863368Y-64061525D01*
X117656525Y-64268368D01*
X117540000Y-64442760D01*
X117423475Y-64268368D01*
X117216632Y-64061525D01*
X116973411Y-63899010D01*
X116703158Y-63787068D01*
X116416260Y-63730000D01*
X116123740Y-63730000D01*
X115836842Y-63787068D01*
X115566589Y-63899010D01*
X115323368Y-64061525D01*
X115116525Y-64268368D01*
X115000000Y-64442760D01*
X114883475Y-64268368D01*
X114676632Y-64061525D01*
X114433411Y-63899010D01*
X114163158Y-63787068D01*
X113876260Y-63730000D01*
X113583740Y-63730000D01*
X113296842Y-63787068D01*
X113026589Y-63899010D01*
X112783368Y-64061525D01*
X112576525Y-64268368D01*
X112454805Y-64450534D01*
X112385178Y-64333645D01*
X112190269Y-64117412D01*
X111956920Y-63943359D01*
X111694099Y-63818175D01*
X111546890Y-63773524D01*
X111317000Y-63894845D01*
X111317000Y-65088000D01*
X111337000Y-65088000D01*
X111337000Y-65342000D01*
X111317000Y-65342000D01*
X111317000Y-65362000D01*
X111063000Y-65362000D01*
X111063000Y-65342000D01*
X111043000Y-65342000D01*
X111043000Y-65088000D01*
X111063000Y-65088000D01*
X111063000Y-63894845D01*
X110833110Y-63773524D01*
X110685901Y-63818175D01*
X110423080Y-63943359D01*
X110189731Y-64117412D01*
X109994822Y-64333645D01*
X109925195Y-64450534D01*
X109803475Y-64268368D01*
X109596632Y-64061525D01*
X109353411Y-63899010D01*
X109083158Y-63787068D01*
X108796260Y-63730000D01*
X108503740Y-63730000D01*
X108216842Y-63787068D01*
X107946589Y-63899010D01*
X107703368Y-64061525D01*
X107496525Y-64268368D01*
X107380000Y-64442760D01*
X107263475Y-64268368D01*
X107056632Y-64061525D01*
X106813411Y-63899010D01*
X106543158Y-63787068D01*
X106256260Y-63730000D01*
X105963740Y-63730000D01*
X105676842Y-63787068D01*
X105406589Y-63899010D01*
X105163368Y-64061525D01*
X104956525Y-64268368D01*
X104834805Y-64450534D01*
X104765178Y-64333645D01*
X104570269Y-64117412D01*
X104336920Y-63943359D01*
X104074099Y-63818175D01*
X103926890Y-63773524D01*
X103697000Y-63894845D01*
X103697000Y-65088000D01*
X103717000Y-65088000D01*
X103717000Y-65342000D01*
X103697000Y-65342000D01*
X103697000Y-65362000D01*
X103443000Y-65362000D01*
X103443000Y-65342000D01*
X103423000Y-65342000D01*
X103423000Y-65088000D01*
X103443000Y-65088000D01*
X103443000Y-63894845D01*
X103213110Y-63773524D01*
X103065901Y-63818175D01*
X102803080Y-63943359D01*
X102569731Y-64117412D01*
X102374822Y-64333645D01*
X102305195Y-64450534D01*
X102183475Y-64268368D01*
X101976632Y-64061525D01*
X101733411Y-63899010D01*
X101463158Y-63787068D01*
X101176260Y-63730000D01*
X100883740Y-63730000D01*
X100596842Y-63787068D01*
X100326589Y-63899010D01*
X100083368Y-64061525D01*
X99876525Y-64268368D01*
X99760000Y-64442760D01*
X99643475Y-64268368D01*
X99436632Y-64061525D01*
X99193411Y-63899010D01*
X98923158Y-63787068D01*
X98636260Y-63730000D01*
X98343740Y-63730000D01*
X98056842Y-63787068D01*
X97786589Y-63899010D01*
X97543368Y-64061525D01*
X97336525Y-64268368D01*
X97220000Y-64442760D01*
X97103475Y-64268368D01*
X96896632Y-64061525D01*
X96653411Y-63899010D01*
X96383158Y-63787068D01*
X96096260Y-63730000D01*
X95803740Y-63730000D01*
X95516842Y-63787068D01*
X95246589Y-63899010D01*
X95003368Y-64061525D01*
X94796525Y-64268368D01*
X94674805Y-64450534D01*
X94605178Y-64333645D01*
X94410269Y-64117412D01*
X94176920Y-63943359D01*
X93914099Y-63818175D01*
X93766890Y-63773524D01*
X93537000Y-63894845D01*
X93537000Y-65088000D01*
X93557000Y-65088000D01*
X93557000Y-65342000D01*
X93537000Y-65342000D01*
X93537000Y-65362000D01*
X93283000Y-65362000D01*
X93283000Y-65342000D01*
X93263000Y-65342000D01*
X93263000Y-65088000D01*
X93283000Y-65088000D01*
X93283000Y-63894845D01*
X93053110Y-63773524D01*
X92905901Y-63818175D01*
X92643080Y-63943359D01*
X92409731Y-64117412D01*
X92214822Y-64333645D01*
X92145195Y-64450534D01*
X92023475Y-64268368D01*
X91816632Y-64061525D01*
X91573411Y-63899010D01*
X91303158Y-63787068D01*
X91016260Y-63730000D01*
X90723740Y-63730000D01*
X90436842Y-63787068D01*
X90166589Y-63899010D01*
X89923368Y-64061525D01*
X89716525Y-64268368D01*
X89600000Y-64442760D01*
X89483475Y-64268368D01*
X89276632Y-64061525D01*
X89033411Y-63899010D01*
X88763158Y-63787068D01*
X88476260Y-63730000D01*
X88183740Y-63730000D01*
X87896842Y-63787068D01*
X87626589Y-63899010D01*
X87383368Y-64061525D01*
X87176525Y-64268368D01*
X87014010Y-64511589D01*
X86902068Y-64781842D01*
X86845000Y-65068740D01*
X86845000Y-65361260D01*
X86902068Y-65648158D01*
X87014010Y-65918411D01*
X87176525Y-66161632D01*
X87308380Y-66293487D01*
X87235820Y-66315498D01*
X87125506Y-66374463D01*
X87028815Y-66453815D01*
X86949463Y-66550506D01*
X86890498Y-66660820D01*
X86854188Y-66780518D01*
X86841928Y-66905000D01*
X79590000Y-66905000D01*
X79590000Y-60502285D01*
X79595000Y-60502285D01*
X79595000Y-61257715D01*
X79742377Y-61998628D01*
X80031467Y-62696554D01*
X80451161Y-63324670D01*
X80985330Y-63858839D01*
X81613446Y-64278533D01*
X82311372Y-64567623D01*
X83052285Y-64715000D01*
X83807715Y-64715000D01*
X84548628Y-64567623D01*
X85246554Y-64278533D01*
X85874670Y-63858839D01*
X86408839Y-63324670D01*
X86828533Y-62696554D01*
X87117623Y-61998628D01*
X87265000Y-61257715D01*
X87265000Y-60502285D01*
X148095000Y-60502285D01*
X148095000Y-61257715D01*
X148242377Y-61998628D01*
X148531467Y-62696554D01*
X148951161Y-63324670D01*
X149485330Y-63858839D01*
X150113446Y-64278533D01*
X150811372Y-64567623D01*
X151552285Y-64715000D01*
X152307715Y-64715000D01*
X153048628Y-64567623D01*
X153746554Y-64278533D01*
X154374670Y-63858839D01*
X154908839Y-63324670D01*
X155328533Y-62696554D01*
X155617623Y-61998628D01*
X155765000Y-61257715D01*
X155765000Y-60502285D01*
X172595000Y-60502285D01*
X172595000Y-61257715D01*
X172742377Y-61998628D01*
X173031467Y-62696554D01*
X173451161Y-63324670D01*
X173985330Y-63858839D01*
X174613446Y-64278533D01*
X175311372Y-64567623D01*
X176052285Y-64715000D01*
X176807715Y-64715000D01*
X177548628Y-64567623D01*
X178246554Y-64278533D01*
X178874670Y-63858839D01*
X179408839Y-63324670D01*
X179828533Y-62696554D01*
X180117623Y-61998628D01*
X180265000Y-61257715D01*
X180265000Y-60502285D01*
X180117623Y-59761372D01*
X179828533Y-59063446D01*
X179408839Y-58435330D01*
X178874670Y-57901161D01*
X178246554Y-57481467D01*
X177548628Y-57192377D01*
X176807715Y-57045000D01*
X176052285Y-57045000D01*
X175311372Y-57192377D01*
X174613446Y-57481467D01*
X173985330Y-57901161D01*
X173451161Y-58435330D01*
X173031467Y-59063446D01*
X172742377Y-59761372D01*
X172595000Y-60502285D01*
X155765000Y-60502285D01*
X155617623Y-59761372D01*
X155328533Y-59063446D01*
X154908839Y-58435330D01*
X154374670Y-57901161D01*
X153746554Y-57481467D01*
X153048628Y-57192377D01*
X152307715Y-57045000D01*
X151552285Y-57045000D01*
X150811372Y-57192377D01*
X150113446Y-57481467D01*
X149485330Y-57901161D01*
X148951161Y-58435330D01*
X148531467Y-59063446D01*
X148242377Y-59761372D01*
X148095000Y-60502285D01*
X87265000Y-60502285D01*
X87117623Y-59761372D01*
X86828533Y-59063446D01*
X86408839Y-58435330D01*
X85874670Y-57901161D01*
X85246554Y-57481467D01*
X84548628Y-57192377D01*
X83807715Y-57045000D01*
X83052285Y-57045000D01*
X82311372Y-57192377D01*
X81613446Y-57481467D01*
X80985330Y-57901161D01*
X80451161Y-58435330D01*
X80031467Y-59063446D01*
X79742377Y-59761372D01*
X79595000Y-60502285D01*
X79590000Y-60502285D01*
X79590000Y-58912279D01*
X79637670Y-58426107D01*
X79679577Y-58287304D01*
X81259371Y-56653034D01*
X81460113Y-56590894D01*
X81944344Y-56540000D01*
X177897721Y-56540000D01*
X178383893Y-56587670D01*
G04 #@! TA.AperFunction,Conductor*
D21*
G36*
X178383893Y-56587670D02*
G01*
X178570934Y-56644141D01*
X180217194Y-58403937D01*
X180219106Y-58410113D01*
X180270000Y-58894344D01*
X180270001Y-106347711D01*
X180222330Y-106833894D01*
X180124435Y-107158140D01*
X178557975Y-108620169D01*
X178399886Y-108669106D01*
X177915664Y-108720000D01*
X81962279Y-108720000D01*
X81504744Y-108675138D01*
X79636361Y-106806755D01*
X79590000Y-106365664D01*
X79590000Y-104502285D01*
X79595000Y-104502285D01*
X79595000Y-105257715D01*
X79742377Y-105998628D01*
X80031467Y-106696554D01*
X80451161Y-107324670D01*
X80985330Y-107858839D01*
X81613446Y-108278533D01*
X82311372Y-108567623D01*
X83052285Y-108715000D01*
X83807715Y-108715000D01*
X84548628Y-108567623D01*
X85246554Y-108278533D01*
X85874670Y-107858839D01*
X86408839Y-107324670D01*
X86828533Y-106696554D01*
X87117623Y-105998628D01*
X87265000Y-105257715D01*
X87265000Y-104502285D01*
X148095000Y-104502285D01*
X148095000Y-105257715D01*
X148242377Y-105998628D01*
X148531467Y-106696554D01*
X148951161Y-107324670D01*
X149485330Y-107858839D01*
X150113446Y-108278533D01*
X150811372Y-108567623D01*
X151552285Y-108715000D01*
X152307715Y-108715000D01*
X153048628Y-108567623D01*
X153746554Y-108278533D01*
X154374670Y-107858839D01*
X154908839Y-107324670D01*
X155328533Y-106696554D01*
X155617623Y-105998628D01*
X155765000Y-105257715D01*
X155765000Y-104502285D01*
X155617623Y-103761372D01*
X155328533Y-103063446D01*
X154908839Y-102435330D01*
X154374670Y-101901161D01*
X153746554Y-101481467D01*
X153048628Y-101192377D01*
X152307715Y-101045000D01*
X151552285Y-101045000D01*
X150811372Y-101192377D01*
X150113446Y-101481467D01*
X149485330Y-101901161D01*
X148951161Y-102435330D01*
X148531467Y-103063446D01*
X148242377Y-103761372D01*
X148095000Y-104502285D01*
X87265000Y-104502285D01*
X87117623Y-103761372D01*
X86828533Y-103063446D01*
X86408839Y-102435330D01*
X85874670Y-101901161D01*
X85246554Y-101481467D01*
X84548628Y-101192377D01*
X83807715Y-101045000D01*
X83052285Y-101045000D01*
X82311372Y-101192377D01*
X81613446Y-101481467D01*
X80985330Y-101901161D01*
X80451161Y-102435330D01*
X80031467Y-103063446D01*
X79742377Y-103761372D01*
X79595000Y-104502285D01*
X79590000Y-104502285D01*
X79590000Y-98398967D01*
X149595000Y-98398967D01*
X149595000Y-98721033D01*
X149657832Y-99036912D01*
X149781082Y-99334463D01*
X149960013Y-99602252D01*
X150187748Y-99829987D01*
X150455537Y-100008918D01*
X150753088Y-100132168D01*
X151068967Y-100195000D01*
X151391033Y-100195000D01*
X151706912Y-100132168D01*
X152004463Y-100008918D01*
X152272252Y-99829987D01*
X152499987Y-99602252D01*
X152678918Y-99334463D01*
X152802168Y-99036912D01*
X152865000Y-98721033D01*
X152865000Y-98398967D01*
X159755000Y-98398967D01*
X159755000Y-98721033D01*
X159817832Y-99036912D01*
X159941082Y-99334463D01*
X160120013Y-99602252D01*
X160347748Y-99829987D01*
X160615537Y-100008918D01*
X160913088Y-100132168D01*
X161228967Y-100195000D01*
X161551033Y-100195000D01*
X161866912Y-100132168D01*
X162164463Y-100008918D01*
X162432252Y-99829987D01*
X162659987Y-99602252D01*
X162838918Y-99334463D01*
X162962168Y-99036912D01*
X163025000Y-98721033D01*
X163025000Y-98398967D01*
X162962168Y-98083088D01*
X162838918Y-97785537D01*
X162659987Y-97517748D01*
X162432252Y-97290013D01*
X162164463Y-97111082D01*
X161866912Y-96987832D01*
X161551033Y-96925000D01*
X161228967Y-96925000D01*
X160913088Y-96987832D01*
X160615537Y-97111082D01*
X160347748Y-97290013D01*
X160120013Y-97517748D01*
X159941082Y-97785537D01*
X159817832Y-98083088D01*
X159755000Y-98398967D01*
X152865000Y-98398967D01*
X152802168Y-98083088D01*
X152678918Y-97785537D01*
X152499987Y-97517748D01*
X152272252Y-97290013D01*
X152004463Y-97111082D01*
X151706912Y-96987832D01*
X151391033Y-96925000D01*
X151068967Y-96925000D01*
X150753088Y-96987832D01*
X150455537Y-97111082D01*
X150187748Y-97290013D01*
X149960013Y-97517748D01*
X149781082Y-97785537D01*
X149657832Y-98083088D01*
X149595000Y-98398967D01*
X79590000Y-98398967D01*
X79590000Y-88238967D01*
X149595000Y-88238967D01*
X149595000Y-88561033D01*
X149657832Y-88876912D01*
X149781082Y-89174463D01*
X149960013Y-89442252D01*
X150187748Y-89669987D01*
X150455537Y-89848918D01*
X150753088Y-89972168D01*
X151068967Y-90035000D01*
X151391033Y-90035000D01*
X151706912Y-89972168D01*
X152004463Y-89848918D01*
X152272252Y-89669987D01*
X152499987Y-89442252D01*
X152678918Y-89174463D01*
X152802168Y-88876912D01*
X152865000Y-88561033D01*
X152865000Y-88238967D01*
X152802168Y-87923088D01*
X152678918Y-87625537D01*
X152499987Y-87357748D01*
X152272252Y-87130013D01*
X152004463Y-86951082D01*
X151706912Y-86827832D01*
X151391033Y-86765000D01*
X151068967Y-86765000D01*
X150753088Y-86827832D01*
X150455537Y-86951082D01*
X150187748Y-87130013D01*
X149960013Y-87357748D01*
X149781082Y-87625537D01*
X149657832Y-87923088D01*
X149595000Y-88238967D01*
X79590000Y-88238967D01*
X79590000Y-66905000D01*
X86841928Y-66905000D01*
X86841928Y-68605000D01*
X86854188Y-68729482D01*
X86890498Y-68849180D01*
X86949463Y-68959494D01*
X87028815Y-69056185D01*
X87125506Y-69135537D01*
X87235820Y-69194502D01*
X87355518Y-69230812D01*
X87480000Y-69243072D01*
X88566493Y-69243072D01*
X88973471Y-69650050D01*
X89001184Y-69683818D01*
X89034952Y-69711531D01*
X89034954Y-69711533D01*
X89106453Y-69770211D01*
X89135942Y-69794412D01*
X89289688Y-69876590D01*
X89456511Y-69927196D01*
X89586524Y-69940001D01*
X89586534Y-69940001D01*
X89630000Y-69944282D01*
X89673467Y-69940001D01*
X107306530Y-69940001D01*
X107349999Y-69944282D01*
X107393468Y-69940001D01*
X107393476Y-69940001D01*
X107523489Y-69927196D01*
X107690312Y-69876590D01*
X107844058Y-69794412D01*
X107978816Y-69683818D01*
X108006533Y-69650045D01*
X108431039Y-69225539D01*
X108503740Y-69240000D01*
X108796260Y-69240000D01*
X108868961Y-69225539D01*
X109308789Y-69665367D01*
X109237744Y-69694795D01*
X109068226Y-69808063D01*
X108924063Y-69952226D01*
X108810795Y-70121744D01*
X108732774Y-70310102D01*
X108693000Y-70510061D01*
X108693000Y-70713939D01*
X108732774Y-70913898D01*
X108810795Y-71102256D01*
X108924063Y-71271774D01*
X109068226Y-71415937D01*
X109237744Y-71529205D01*
X109426102Y-71607226D01*
X109626061Y-71647000D01*
X109688199Y-71647000D01*
X121916997Y-83875799D01*
X121917003Y-83875804D01*
X122014696Y-83973497D01*
X122038499Y-84002501D01*
X122154224Y-84097474D01*
X122286253Y-84168046D01*
X122429514Y-84211503D01*
X122541167Y-84222500D01*
X122541176Y-84222500D01*
X122578499Y-84226176D01*
X122615822Y-84222500D01*
X153881970Y-84222500D01*
X153989038Y-84352962D01*
X154123613Y-84463405D01*
X154277149Y-84545472D01*
X154443745Y-84596008D01*
X154616999Y-84613072D01*
X155142771Y-84613072D01*
X156130701Y-85601003D01*
X156154499Y-85630001D01*
X156183497Y-85653799D01*
X156270224Y-85724974D01*
X156402253Y-85795546D01*
X156545514Y-85839003D01*
X156694500Y-85853677D01*
X156731833Y-85850000D01*
X157284289Y-85850000D01*
X157328226Y-85893937D01*
X157497744Y-86007205D01*
X157686102Y-86085226D01*
X157886061Y-86125000D01*
X158089939Y-86125000D01*
X158289898Y-86085226D01*
X158478256Y-86007205D01*
X158611001Y-85918508D01*
X158611001Y-88647420D01*
X156161742Y-91096679D01*
X155798601Y-90946261D01*
X155289525Y-90845000D01*
X154770475Y-90845000D01*
X154261399Y-90946261D01*
X153781859Y-91144893D01*
X153350285Y-91433262D01*
X152983262Y-91800285D01*
X152694893Y-92231859D01*
X152496261Y-92711399D01*
X152395000Y-93220475D01*
X152395000Y-93739525D01*
X152496261Y-94248601D01*
X152694893Y-94728141D01*
X152983262Y-95159715D01*
X153350285Y-95526738D01*
X153781859Y-95815107D01*
X154261399Y-96013739D01*
X154770475Y-96115000D01*
X155289525Y-96115000D01*
X155798601Y-96013739D01*
X156278141Y-95815107D01*
X156709715Y-95526738D01*
X157076738Y-95159715D01*
X157365107Y-94728141D01*
X157563739Y-94248601D01*
X157665000Y-93739525D01*
X157665000Y-93220475D01*
X157563739Y-92711399D01*
X157413321Y-92348258D01*
X160091049Y-89670530D01*
X160124817Y-89642817D01*
X160213058Y-89535297D01*
X160347748Y-89669987D01*
X160615537Y-89848918D01*
X160913088Y-89972168D01*
X161228967Y-90035000D01*
X161551033Y-90035000D01*
X161866912Y-89972168D01*
X162164463Y-89848918D01*
X162432252Y-89669987D01*
X162659987Y-89442252D01*
X162838918Y-89174463D01*
X162962168Y-88876912D01*
X163025000Y-88561033D01*
X163025000Y-88238967D01*
X162962168Y-87923088D01*
X162838918Y-87625537D01*
X162659987Y-87357748D01*
X162432252Y-87130013D01*
X162164463Y-86951082D01*
X161866912Y-86827832D01*
X161551033Y-86765000D01*
X161228967Y-86765000D01*
X160913088Y-86827832D01*
X160615537Y-86951082D01*
X160381000Y-87107795D01*
X160381000Y-84119127D01*
X160545744Y-84229205D01*
X160734102Y-84307226D01*
X160934061Y-84347000D01*
X161137939Y-84347000D01*
X161337898Y-84307226D01*
X161526256Y-84229205D01*
X161695774Y-84115937D01*
X161716211Y-84095500D01*
X162898970Y-84095500D01*
X163006038Y-84225962D01*
X163140613Y-84336405D01*
X163294149Y-84418472D01*
X163460745Y-84469008D01*
X163633999Y-84486072D01*
X164534001Y-84486072D01*
X164707255Y-84469008D01*
X164873851Y-84418472D01*
X165027387Y-84336405D01*
X165161962Y-84225962D01*
X165166445Y-84220500D01*
X165608791Y-84220500D01*
X165611815Y-84224185D01*
X165708506Y-84303537D01*
X165818820Y-84362502D01*
X165938518Y-84398812D01*
X166063000Y-84411072D01*
X166963000Y-84411072D01*
X167087482Y-84398812D01*
X167207180Y-84362502D01*
X167317494Y-84303537D01*
X167414185Y-84224185D01*
X167493537Y-84127494D01*
X167552502Y-84017180D01*
X167588812Y-83897482D01*
X167601072Y-83773000D01*
X167601072Y-83261095D01*
X167611815Y-83274185D01*
X167628000Y-83287468D01*
X167628001Y-96450420D01*
X162068961Y-102009461D01*
X161996260Y-101995000D01*
X161703740Y-101995000D01*
X161416842Y-102052068D01*
X161146589Y-102164010D01*
X160903368Y-102326525D01*
X160696525Y-102533368D01*
X160534010Y-102776589D01*
X160422068Y-103046842D01*
X160365000Y-103333740D01*
X160365000Y-103626260D01*
X160422068Y-103913158D01*
X160534010Y-104183411D01*
X160696525Y-104426632D01*
X160903368Y-104633475D01*
X161146589Y-104795990D01*
X161416842Y-104907932D01*
X161703740Y-104965000D01*
X161996260Y-104965000D01*
X162283158Y-104907932D01*
X162553411Y-104795990D01*
X162796632Y-104633475D01*
X163003475Y-104426632D01*
X163120000Y-104252240D01*
X163236525Y-104426632D01*
X163443368Y-104633475D01*
X163686589Y-104795990D01*
X163956842Y-104907932D01*
X164243740Y-104965000D01*
X164536260Y-104965000D01*
X164823158Y-104907932D01*
X165093411Y-104795990D01*
X165336632Y-104633475D01*
X165468487Y-104501620D01*
X165490498Y-104574180D01*
X165549463Y-104684494D01*
X165628815Y-104781185D01*
X165725506Y-104860537D01*
X165835820Y-104919502D01*
X165955518Y-104955812D01*
X166080000Y-104968072D01*
X166644250Y-104965000D01*
X166803000Y-104806250D01*
X166803000Y-103607000D01*
X167057000Y-103607000D01*
X167057000Y-104806250D01*
X167215750Y-104965000D01*
X167780000Y-104968072D01*
X167904482Y-104955812D01*
X168024180Y-104919502D01*
X168134494Y-104860537D01*
X168231185Y-104781185D01*
X168310537Y-104684494D01*
X168369502Y-104574180D01*
X168391311Y-104502285D01*
X172595000Y-104502285D01*
X172595000Y-105257715D01*
X172742377Y-105998628D01*
X173031467Y-106696554D01*
X173451161Y-107324670D01*
X173985330Y-107858839D01*
X174613446Y-108278533D01*
X175311372Y-108567623D01*
X176052285Y-108715000D01*
X176807715Y-108715000D01*
X177548628Y-108567623D01*
X178246554Y-108278533D01*
X178874670Y-107858839D01*
X179408839Y-107324670D01*
X179828533Y-106696554D01*
X180117623Y-105998628D01*
X180265000Y-105257715D01*
X180265000Y-104502285D01*
X180117623Y-103761372D01*
X179828533Y-103063446D01*
X179408839Y-102435330D01*
X178874670Y-101901161D01*
X178246554Y-101481467D01*
X177548628Y-101192377D01*
X176807715Y-101045000D01*
X176052285Y-101045000D01*
X175311372Y-101192377D01*
X174613446Y-101481467D01*
X173985330Y-101901161D01*
X173451161Y-102435330D01*
X173031467Y-103063446D01*
X172742377Y-103761372D01*
X172595000Y-104502285D01*
X168391311Y-104502285D01*
X168405812Y-104454482D01*
X168418072Y-104330000D01*
X168415000Y-103765750D01*
X168256250Y-103607000D01*
X167057000Y-103607000D01*
X166803000Y-103607000D01*
X166783000Y-103607000D01*
X166783000Y-103353000D01*
X166803000Y-103353000D01*
X166803000Y-103333000D01*
X167057000Y-103333000D01*
X167057000Y-103353000D01*
X168256250Y-103353000D01*
X168415000Y-103194250D01*
X168418072Y-102630000D01*
X168405812Y-102505518D01*
X168369502Y-102385820D01*
X168310537Y-102275506D01*
X168231185Y-102178815D01*
X168134494Y-102099463D01*
X168024180Y-102040498D01*
X167904482Y-102004188D01*
X167780000Y-101991928D01*
X167215750Y-101995000D01*
X167057002Y-102153748D01*
X167057002Y-102064576D01*
X178829049Y-90292530D01*
X178862817Y-90264817D01*
X178973411Y-90130059D01*
X179024221Y-90035000D01*
X179055589Y-89976314D01*
X179106195Y-89809490D01*
X179111718Y-89753411D01*
X179119000Y-89679477D01*
X179119000Y-89679469D01*
X179123281Y-89636000D01*
X179119000Y-89592531D01*
X179119000Y-83287468D01*
X179135185Y-83274185D01*
X179214537Y-83177494D01*
X179273502Y-83067180D01*
X179309812Y-82947482D01*
X179322072Y-82823000D01*
X179322072Y-82023000D01*
X179309812Y-81898518D01*
X179273502Y-81778820D01*
X179214537Y-81668506D01*
X179135185Y-81571815D01*
X179038494Y-81492463D01*
X178928180Y-81433498D01*
X178808482Y-81397188D01*
X178684000Y-81384928D01*
X177784000Y-81384928D01*
X177659518Y-81397188D01*
X177539820Y-81433498D01*
X177429506Y-81492463D01*
X177332815Y-81571815D01*
X177322072Y-81584905D01*
X177322072Y-81073000D01*
X177309812Y-80948518D01*
X177273502Y-80828820D01*
X177214537Y-80718506D01*
X177135185Y-80621815D01*
X177038494Y-80542463D01*
X176928180Y-80483498D01*
X176808482Y-80447188D01*
X176684000Y-80434928D01*
X175784000Y-80434928D01*
X175659518Y-80447188D01*
X175539820Y-80483498D01*
X175429506Y-80542463D01*
X175332815Y-80621815D01*
X175329791Y-80625500D01*
X174945445Y-80625500D01*
X174940962Y-80620038D01*
X174806387Y-80509595D01*
X174652851Y-80427528D01*
X174486255Y-80376992D01*
X174313001Y-80359928D01*
X173412999Y-80359928D01*
X173239745Y-80376992D01*
X173073149Y-80427528D01*
X172919613Y-80509595D01*
X172824076Y-80588000D01*
X167372981Y-80588000D01*
X167317494Y-80542463D01*
X167207180Y-80483498D01*
X167087482Y-80447188D01*
X166963000Y-80434928D01*
X166063000Y-80434928D01*
X165938518Y-80447188D01*
X165818820Y-80483498D01*
X165708506Y-80542463D01*
X165653019Y-80588000D01*
X165122924Y-80588000D01*
X165027387Y-80509595D01*
X164873851Y-80427528D01*
X164707255Y-80376992D01*
X164534001Y-80359928D01*
X163633999Y-80359928D01*
X163460745Y-80376992D01*
X163294149Y-80427528D01*
X163140613Y-80509595D01*
X163006038Y-80620038D01*
X162928105Y-80715000D01*
X158355981Y-80715000D01*
X158300494Y-80669463D01*
X158190180Y-80610498D01*
X158070482Y-80574188D01*
X157946000Y-80561928D01*
X157046000Y-80561928D01*
X156921518Y-80574188D01*
X156801820Y-80610498D01*
X156691506Y-80669463D01*
X156594815Y-80748815D01*
X156591791Y-80752500D01*
X156149445Y-80752500D01*
X156144962Y-80747038D01*
X156010387Y-80636595D01*
X155856851Y-80554528D01*
X155690255Y-80503992D01*
X155517001Y-80486928D01*
X154616999Y-80486928D01*
X154443745Y-80503992D01*
X154277149Y-80554528D01*
X154123613Y-80636595D01*
X153989038Y-80747038D01*
X153984555Y-80752500D01*
X122899079Y-80752500D01*
X118545546Y-76398967D01*
X149595000Y-76398967D01*
X149595000Y-76721033D01*
X149657832Y-77036912D01*
X149781082Y-77334463D01*
X149960013Y-77602252D01*
X150187748Y-77829987D01*
X150455537Y-78008918D01*
X150753088Y-78132168D01*
X151068967Y-78195000D01*
X151391033Y-78195000D01*
X151706912Y-78132168D01*
X152004463Y-78008918D01*
X152272252Y-77829987D01*
X152499987Y-77602252D01*
X152678918Y-77334463D01*
X152802168Y-77036912D01*
X152865000Y-76721033D01*
X152865000Y-76398967D01*
X159755000Y-76398967D01*
X159755000Y-76721033D01*
X159817832Y-77036912D01*
X159941082Y-77334463D01*
X160120013Y-77602252D01*
X160347748Y-77829987D01*
X160615537Y-78008918D01*
X160913088Y-78132168D01*
X161228967Y-78195000D01*
X161551033Y-78195000D01*
X161866912Y-78132168D01*
X162164463Y-78008918D01*
X162432252Y-77829987D01*
X162659987Y-77602252D01*
X162838918Y-77334463D01*
X162962168Y-77036912D01*
X163025000Y-76721033D01*
X163025000Y-76398967D01*
X162962168Y-76083088D01*
X162838918Y-75785537D01*
X162659987Y-75517748D01*
X162432252Y-75290013D01*
X162164463Y-75111082D01*
X161866912Y-74987832D01*
X161551033Y-74925000D01*
X161228967Y-74925000D01*
X160913088Y-74987832D01*
X160615537Y-75111082D01*
X160347748Y-75290013D01*
X160120013Y-75517748D01*
X159941082Y-75785537D01*
X159817832Y-76083088D01*
X159755000Y-76398967D01*
X152865000Y-76398967D01*
X152802168Y-76083088D01*
X152678918Y-75785537D01*
X152499987Y-75517748D01*
X152272252Y-75290013D01*
X152004463Y-75111082D01*
X151706912Y-74987832D01*
X151391033Y-74925000D01*
X151068967Y-74925000D01*
X150753088Y-74987832D01*
X150455537Y-75111082D01*
X150187748Y-75290013D01*
X149960013Y-75517748D01*
X149781082Y-75785537D01*
X149657832Y-76083088D01*
X149595000Y-76398967D01*
X118545546Y-76398967D01*
X115474078Y-73327499D01*
X153362106Y-73327499D01*
X153578228Y-73694258D01*
X154038105Y-73934938D01*
X154536098Y-74081275D01*
X155053071Y-74127648D01*
X155569159Y-74072273D01*
X156064526Y-73917279D01*
X156481772Y-73694258D01*
X156697894Y-73327499D01*
X155030000Y-71659605D01*
X153362106Y-73327499D01*
X115474078Y-73327499D01*
X113649650Y-71503071D01*
X152382352Y-71503071D01*
X152437727Y-72019159D01*
X152592721Y-72514526D01*
X152815742Y-72931772D01*
X153182501Y-73147894D01*
X154850395Y-71480000D01*
X155209605Y-71480000D01*
X156877499Y-73147894D01*
X157244258Y-72931772D01*
X157484938Y-72471895D01*
X157631275Y-71973902D01*
X157677648Y-71456929D01*
X157622273Y-70940841D01*
X157467279Y-70445474D01*
X157244258Y-70028228D01*
X156877499Y-69812106D01*
X155209605Y-71480000D01*
X154850395Y-71480000D01*
X153182501Y-69812106D01*
X152815742Y-70028228D01*
X152575062Y-70488105D01*
X152428725Y-70986098D01*
X152382352Y-71503071D01*
X113649650Y-71503071D01*
X111779080Y-69632501D01*
X153362106Y-69632501D01*
X155030000Y-71300395D01*
X156697894Y-69632501D01*
X156481772Y-69265742D01*
X156021895Y-69025062D01*
X155523902Y-68878725D01*
X155006929Y-68832352D01*
X154490841Y-68887727D01*
X153995474Y-69042721D01*
X153578228Y-69265742D01*
X153362106Y-69632501D01*
X111779080Y-69632501D01*
X111378230Y-69231652D01*
X111623158Y-69182932D01*
X111893411Y-69070990D01*
X112136632Y-68908475D01*
X112343475Y-68701632D01*
X112460000Y-68527240D01*
X112576525Y-68701632D01*
X112783368Y-68908475D01*
X113026589Y-69070990D01*
X113296842Y-69182932D01*
X113583740Y-69240000D01*
X113876260Y-69240000D01*
X114163158Y-69182932D01*
X114433411Y-69070990D01*
X114676632Y-68908475D01*
X114883475Y-68701632D01*
X115000000Y-68527240D01*
X115116525Y-68701632D01*
X115323368Y-68908475D01*
X115566589Y-69070990D01*
X115836842Y-69182932D01*
X116123740Y-69240000D01*
X116416260Y-69240000D01*
X116703158Y-69182932D01*
X116973411Y-69070990D01*
X117216632Y-68908475D01*
X117423475Y-68701632D01*
X117545195Y-68519466D01*
X117614822Y-68636355D01*
X117809731Y-68852588D01*
X118043080Y-69026641D01*
X118305901Y-69151825D01*
X118453110Y-69196476D01*
X118683000Y-69075155D01*
X118683000Y-67882000D01*
X118663000Y-67882000D01*
X118663000Y-67628000D01*
X118683000Y-67628000D01*
X118683000Y-67608000D01*
X118937000Y-67608000D01*
X118937000Y-67628000D01*
X118957000Y-67628000D01*
X118957000Y-67882000D01*
X118937000Y-67882000D01*
X118937000Y-69075155D01*
X119166890Y-69196476D01*
X119314099Y-69151825D01*
X119576920Y-69026641D01*
X119810269Y-68852588D01*
X120005178Y-68636355D01*
X120074805Y-68519466D01*
X120196525Y-68701632D01*
X120403368Y-68908475D01*
X120646589Y-69070990D01*
X120916842Y-69182932D01*
X121203740Y-69240000D01*
X121496260Y-69240000D01*
X121783158Y-69182932D01*
X122053411Y-69070990D01*
X122296632Y-68908475D01*
X122503475Y-68701632D01*
X122620000Y-68527240D01*
X122736525Y-68701632D01*
X122943368Y-68908475D01*
X123186589Y-69070990D01*
X123456842Y-69182932D01*
X123743740Y-69240000D01*
X124036260Y-69240000D01*
X124323158Y-69182932D01*
X124593411Y-69070990D01*
X124836632Y-68908475D01*
X125043475Y-68701632D01*
X125160000Y-68527240D01*
X125276525Y-68701632D01*
X125483368Y-68908475D01*
X125726589Y-69070990D01*
X125996842Y-69182932D01*
X126283740Y-69240000D01*
X126576260Y-69240000D01*
X126863158Y-69182932D01*
X127133411Y-69070990D01*
X127376632Y-68908475D01*
X127583475Y-68701632D01*
X127700000Y-68527240D01*
X127816525Y-68701632D01*
X128023368Y-68908475D01*
X128266589Y-69070990D01*
X128536842Y-69182932D01*
X128823740Y-69240000D01*
X129116260Y-69240000D01*
X129403158Y-69182932D01*
X129673411Y-69070990D01*
X129916632Y-68908475D01*
X130123475Y-68701632D01*
X130240000Y-68527240D01*
X130356525Y-68701632D01*
X130563368Y-68908475D01*
X130806589Y-69070990D01*
X131076842Y-69182932D01*
X131363740Y-69240000D01*
X131656260Y-69240000D01*
X131943158Y-69182932D01*
X132213411Y-69070990D01*
X132456632Y-68908475D01*
X132663475Y-68701632D01*
X132780000Y-68527240D01*
X132896525Y-68701632D01*
X133103368Y-68908475D01*
X133346589Y-69070990D01*
X133616842Y-69182932D01*
X133903740Y-69240000D01*
X134196260Y-69240000D01*
X134483158Y-69182932D01*
X134753411Y-69070990D01*
X134996632Y-68908475D01*
X135203475Y-68701632D01*
X135325195Y-68519466D01*
X135394822Y-68636355D01*
X135589731Y-68852588D01*
X135823080Y-69026641D01*
X136085901Y-69151825D01*
X136233110Y-69196476D01*
X136463000Y-69075155D01*
X136463000Y-67882000D01*
X136717000Y-67882000D01*
X136717000Y-69075155D01*
X136946890Y-69196476D01*
X137094099Y-69151825D01*
X137356920Y-69026641D01*
X137590269Y-68852588D01*
X137785178Y-68636355D01*
X137934157Y-68386252D01*
X138031481Y-68111891D01*
X137910814Y-67882000D01*
X136717000Y-67882000D01*
X136463000Y-67882000D01*
X136443000Y-67882000D01*
X136443000Y-67628000D01*
X136463000Y-67628000D01*
X136463000Y-67608000D01*
X136717000Y-67608000D01*
X136717000Y-67628000D01*
X137910814Y-67628000D01*
X138031481Y-67398109D01*
X137934157Y-67123748D01*
X137785178Y-66873645D01*
X137590269Y-66657412D01*
X137360594Y-66486100D01*
X137536632Y-66368475D01*
X137666140Y-66238967D01*
X149595000Y-66238967D01*
X149595000Y-66561033D01*
X149657832Y-66876912D01*
X149781082Y-67174463D01*
X149960013Y-67442252D01*
X150187748Y-67669987D01*
X150455537Y-67848918D01*
X150753088Y-67972168D01*
X151068967Y-68035000D01*
X151391033Y-68035000D01*
X151706912Y-67972168D01*
X152004463Y-67848918D01*
X152272252Y-67669987D01*
X152499987Y-67442252D01*
X152678918Y-67174463D01*
X152802168Y-66876912D01*
X152865000Y-66561033D01*
X152865000Y-66238967D01*
X159755000Y-66238967D01*
X159755000Y-66561033D01*
X159817832Y-66876912D01*
X159941082Y-67174463D01*
X160120013Y-67442252D01*
X160347748Y-67669987D01*
X160615537Y-67848918D01*
X160913088Y-67972168D01*
X161228967Y-68035000D01*
X161551033Y-68035000D01*
X161866912Y-67972168D01*
X162164463Y-67848918D01*
X162432252Y-67669987D01*
X162659987Y-67442252D01*
X162838918Y-67174463D01*
X162962168Y-66876912D01*
X163025000Y-66561033D01*
X163025000Y-66238967D01*
X162962168Y-65923088D01*
X162838918Y-65625537D01*
X162659987Y-65357748D01*
X162432252Y-65130013D01*
X162164463Y-64951082D01*
X161866912Y-64827832D01*
X161551033Y-64765000D01*
X161228967Y-64765000D01*
X160913088Y-64827832D01*
X160615537Y-64951082D01*
X160347748Y-65130013D01*
X160120013Y-65357748D01*
X159941082Y-65625537D01*
X159817832Y-65923088D01*
X159755000Y-66238967D01*
X152865000Y-66238967D01*
X152802168Y-65923088D01*
X152678918Y-65625537D01*
X152499987Y-65357748D01*
X152272252Y-65130013D01*
X152004463Y-64951082D01*
X151706912Y-64827832D01*
X151391033Y-64765000D01*
X151068967Y-64765000D01*
X150753088Y-64827832D01*
X150455537Y-64951082D01*
X150187748Y-65130013D01*
X149960013Y-65357748D01*
X149781082Y-65625537D01*
X149657832Y-65923088D01*
X149595000Y-66238967D01*
X137666140Y-66238967D01*
X137743475Y-66161632D01*
X137905990Y-65918411D01*
X138017932Y-65648158D01*
X138075000Y-65361260D01*
X138075000Y-65068740D01*
X138017932Y-64781842D01*
X137905990Y-64511589D01*
X137743475Y-64268368D01*
X137536632Y-64061525D01*
X137293411Y-63899010D01*
X137023158Y-63787068D01*
X136736260Y-63730000D01*
X136443740Y-63730000D01*
X136156842Y-63787068D01*
X135886589Y-63899010D01*
X135643368Y-64061525D01*
X135436525Y-64268368D01*
X135320000Y-64442760D01*
X135203475Y-64268368D01*
X134996632Y-64061525D01*
X134753411Y-63899010D01*
X134483158Y-63787068D01*
X134196260Y-63730000D01*
X133903740Y-63730000D01*
X133616842Y-63787068D01*
X133346589Y-63899010D01*
X133103368Y-64061525D01*
X132896525Y-64268368D01*
X132780000Y-64442760D01*
X132663475Y-64268368D01*
X132456632Y-64061525D01*
X132213411Y-63899010D01*
X131943158Y-63787068D01*
X131656260Y-63730000D01*
X131363740Y-63730000D01*
X131076842Y-63787068D01*
X130806589Y-63899010D01*
X130563368Y-64061525D01*
X130356525Y-64268368D01*
X130234805Y-64450534D01*
X130165178Y-64333645D01*
X129970269Y-64117412D01*
X129736920Y-63943359D01*
X129474099Y-63818175D01*
X129326890Y-63773524D01*
X129097000Y-63894845D01*
X129097000Y-65088000D01*
X129117000Y-65088000D01*
X129117000Y-65342000D01*
X129097000Y-65342000D01*
X129097000Y-65362000D01*
X128843000Y-65362000D01*
X128843000Y-65342000D01*
X128823000Y-65342000D01*
X128823000Y-65088000D01*
X128843000Y-65088000D01*
X128843000Y-63894845D01*
X128613110Y-63773524D01*
X128465901Y-63818175D01*
X128203080Y-63943359D01*
X127969731Y-64117412D01*
X127774822Y-64333645D01*
X127705195Y-64450534D01*
X127583475Y-64268368D01*
X127376632Y-64061525D01*
X127133411Y-63899010D01*
X126863158Y-63787068D01*
X126576260Y-63730000D01*
X126283740Y-63730000D01*
X125996842Y-63787068D01*
X125726589Y-63899010D01*
X125483368Y-64061525D01*
X125276525Y-64268368D01*
X125154805Y-64450534D01*
X125085178Y-64333645D01*
X124890269Y-64117412D01*
X124656920Y-63943359D01*
X124394099Y-63818175D01*
X124246890Y-63773524D01*
X124017000Y-63894845D01*
X124017000Y-65088000D01*
X124037000Y-65088000D01*
X124037000Y-65342000D01*
X124017000Y-65342000D01*
X124017000Y-65362000D01*
X123763000Y-65362000D01*
X123763000Y-65342000D01*
X123743000Y-65342000D01*
X123743000Y-65088000D01*
X123763000Y-65088000D01*
X123763000Y-63894845D01*
X123533110Y-63773524D01*
X123385901Y-63818175D01*
X123123080Y-63943359D01*
X122889731Y-64117412D01*
X122694822Y-64333645D01*
X122625195Y-64450534D01*
X122503475Y-64268368D01*
X122296632Y-64061525D01*
X122053411Y-63899010D01*
X121783158Y-63787068D01*
X121496260Y-63730000D01*
X121203740Y-63730000D01*
X120916842Y-63787068D01*
X120646589Y-63899010D01*
X120403368Y-64061525D01*
X120196525Y-64268368D01*
X120080000Y-64442760D01*
X119963475Y-64268368D01*
X119756632Y-64061525D01*
X119513411Y-63899010D01*
X119243158Y-63787068D01*
X118956260Y-63730000D01*
X118663740Y-63730000D01*
X118376842Y-63787068D01*
X118106589Y-63899010D01*
X117863368Y-64061525D01*
X117656525Y-64268368D01*
X117540000Y-64442760D01*
X117423475Y-64268368D01*
X117216632Y-64061525D01*
X116973411Y-63899010D01*
X116703158Y-63787068D01*
X116416260Y-63730000D01*
X116123740Y-63730000D01*
X115836842Y-63787068D01*
X115566589Y-63899010D01*
X115323368Y-64061525D01*
X115116525Y-64268368D01*
X115000000Y-64442760D01*
X114883475Y-64268368D01*
X114676632Y-64061525D01*
X114433411Y-63899010D01*
X114163158Y-63787068D01*
X113876260Y-63730000D01*
X113583740Y-63730000D01*
X113296842Y-63787068D01*
X113026589Y-63899010D01*
X112783368Y-64061525D01*
X112576525Y-64268368D01*
X112454805Y-64450534D01*
X112385178Y-64333645D01*
X112190269Y-64117412D01*
X111956920Y-63943359D01*
X111694099Y-63818175D01*
X111546890Y-63773524D01*
X111317000Y-63894845D01*
X111317000Y-65088000D01*
X111337000Y-65088000D01*
X111337000Y-65342000D01*
X111317000Y-65342000D01*
X111317000Y-65362000D01*
X111063000Y-65362000D01*
X111063000Y-65342000D01*
X111043000Y-65342000D01*
X111043000Y-65088000D01*
X111063000Y-65088000D01*
X111063000Y-63894845D01*
X110833110Y-63773524D01*
X110685901Y-63818175D01*
X110423080Y-63943359D01*
X110189731Y-64117412D01*
X109994822Y-64333645D01*
X109925195Y-64450534D01*
X109803475Y-64268368D01*
X109596632Y-64061525D01*
X109353411Y-63899010D01*
X109083158Y-63787068D01*
X108796260Y-63730000D01*
X108503740Y-63730000D01*
X108216842Y-63787068D01*
X107946589Y-63899010D01*
X107703368Y-64061525D01*
X107496525Y-64268368D01*
X107380000Y-64442760D01*
X107263475Y-64268368D01*
X107056632Y-64061525D01*
X106813411Y-63899010D01*
X106543158Y-63787068D01*
X106256260Y-63730000D01*
X105963740Y-63730000D01*
X105676842Y-63787068D01*
X105406589Y-63899010D01*
X105163368Y-64061525D01*
X104956525Y-64268368D01*
X104834805Y-64450534D01*
X104765178Y-64333645D01*
X104570269Y-64117412D01*
X104336920Y-63943359D01*
X104074099Y-63818175D01*
X103926890Y-63773524D01*
X103697000Y-63894845D01*
X103697000Y-65088000D01*
X103717000Y-65088000D01*
X103717000Y-65342000D01*
X103697000Y-65342000D01*
X103697000Y-65362000D01*
X103443000Y-65362000D01*
X103443000Y-65342000D01*
X103423000Y-65342000D01*
X103423000Y-65088000D01*
X103443000Y-65088000D01*
X103443000Y-63894845D01*
X103213110Y-63773524D01*
X103065901Y-63818175D01*
X102803080Y-63943359D01*
X102569731Y-64117412D01*
X102374822Y-64333645D01*
X102305195Y-64450534D01*
X102183475Y-64268368D01*
X101976632Y-64061525D01*
X101733411Y-63899010D01*
X101463158Y-63787068D01*
X101176260Y-63730000D01*
X100883740Y-63730000D01*
X100596842Y-63787068D01*
X100326589Y-63899010D01*
X100083368Y-64061525D01*
X99876525Y-64268368D01*
X99760000Y-64442760D01*
X99643475Y-64268368D01*
X99436632Y-64061525D01*
X99193411Y-63899010D01*
X98923158Y-63787068D01*
X98636260Y-63730000D01*
X98343740Y-63730000D01*
X98056842Y-63787068D01*
X97786589Y-63899010D01*
X97543368Y-64061525D01*
X97336525Y-64268368D01*
X97220000Y-64442760D01*
X97103475Y-64268368D01*
X96896632Y-64061525D01*
X96653411Y-63899010D01*
X96383158Y-63787068D01*
X96096260Y-63730000D01*
X95803740Y-63730000D01*
X95516842Y-63787068D01*
X95246589Y-63899010D01*
X95003368Y-64061525D01*
X94796525Y-64268368D01*
X94674805Y-64450534D01*
X94605178Y-64333645D01*
X94410269Y-64117412D01*
X94176920Y-63943359D01*
X93914099Y-63818175D01*
X93766890Y-63773524D01*
X93537000Y-63894845D01*
X93537000Y-65088000D01*
X93557000Y-65088000D01*
X93557000Y-65342000D01*
X93537000Y-65342000D01*
X93537000Y-65362000D01*
X93283000Y-65362000D01*
X93283000Y-65342000D01*
X93263000Y-65342000D01*
X93263000Y-65088000D01*
X93283000Y-65088000D01*
X93283000Y-63894845D01*
X93053110Y-63773524D01*
X92905901Y-63818175D01*
X92643080Y-63943359D01*
X92409731Y-64117412D01*
X92214822Y-64333645D01*
X92145195Y-64450534D01*
X92023475Y-64268368D01*
X91816632Y-64061525D01*
X91573411Y-63899010D01*
X91303158Y-63787068D01*
X91016260Y-63730000D01*
X90723740Y-63730000D01*
X90436842Y-63787068D01*
X90166589Y-63899010D01*
X89923368Y-64061525D01*
X89716525Y-64268368D01*
X89600000Y-64442760D01*
X89483475Y-64268368D01*
X89276632Y-64061525D01*
X89033411Y-63899010D01*
X88763158Y-63787068D01*
X88476260Y-63730000D01*
X88183740Y-63730000D01*
X87896842Y-63787068D01*
X87626589Y-63899010D01*
X87383368Y-64061525D01*
X87176525Y-64268368D01*
X87014010Y-64511589D01*
X86902068Y-64781842D01*
X86845000Y-65068740D01*
X86845000Y-65361260D01*
X86902068Y-65648158D01*
X87014010Y-65918411D01*
X87176525Y-66161632D01*
X87308380Y-66293487D01*
X87235820Y-66315498D01*
X87125506Y-66374463D01*
X87028815Y-66453815D01*
X86949463Y-66550506D01*
X86890498Y-66660820D01*
X86854188Y-66780518D01*
X86841928Y-66905000D01*
X79590000Y-66905000D01*
X79590000Y-60502285D01*
X79595000Y-60502285D01*
X79595000Y-61257715D01*
X79742377Y-61998628D01*
X80031467Y-62696554D01*
X80451161Y-63324670D01*
X80985330Y-63858839D01*
X81613446Y-64278533D01*
X82311372Y-64567623D01*
X83052285Y-64715000D01*
X83807715Y-64715000D01*
X84548628Y-64567623D01*
X85246554Y-64278533D01*
X85874670Y-63858839D01*
X86408839Y-63324670D01*
X86828533Y-62696554D01*
X87117623Y-61998628D01*
X87265000Y-61257715D01*
X87265000Y-60502285D01*
X148095000Y-60502285D01*
X148095000Y-61257715D01*
X148242377Y-61998628D01*
X148531467Y-62696554D01*
X148951161Y-63324670D01*
X149485330Y-63858839D01*
X150113446Y-64278533D01*
X150811372Y-64567623D01*
X151552285Y-64715000D01*
X152307715Y-64715000D01*
X153048628Y-64567623D01*
X153746554Y-64278533D01*
X154374670Y-63858839D01*
X154908839Y-63324670D01*
X155328533Y-62696554D01*
X155617623Y-61998628D01*
X155765000Y-61257715D01*
X155765000Y-60502285D01*
X172595000Y-60502285D01*
X172595000Y-61257715D01*
X172742377Y-61998628D01*
X173031467Y-62696554D01*
X173451161Y-63324670D01*
X173985330Y-63858839D01*
X174613446Y-64278533D01*
X175311372Y-64567623D01*
X176052285Y-64715000D01*
X176807715Y-64715000D01*
X177548628Y-64567623D01*
X178246554Y-64278533D01*
X178874670Y-63858839D01*
X179408839Y-63324670D01*
X179828533Y-62696554D01*
X180117623Y-61998628D01*
X180265000Y-61257715D01*
X180265000Y-60502285D01*
X180117623Y-59761372D01*
X179828533Y-59063446D01*
X179408839Y-58435330D01*
X178874670Y-57901161D01*
X178246554Y-57481467D01*
X177548628Y-57192377D01*
X176807715Y-57045000D01*
X176052285Y-57045000D01*
X175311372Y-57192377D01*
X174613446Y-57481467D01*
X173985330Y-57901161D01*
X173451161Y-58435330D01*
X173031467Y-59063446D01*
X172742377Y-59761372D01*
X172595000Y-60502285D01*
X155765000Y-60502285D01*
X155617623Y-59761372D01*
X155328533Y-59063446D01*
X154908839Y-58435330D01*
X154374670Y-57901161D01*
X153746554Y-57481467D01*
X153048628Y-57192377D01*
X152307715Y-57045000D01*
X151552285Y-57045000D01*
X150811372Y-57192377D01*
X150113446Y-57481467D01*
X149485330Y-57901161D01*
X148951161Y-58435330D01*
X148531467Y-59063446D01*
X148242377Y-59761372D01*
X148095000Y-60502285D01*
X87265000Y-60502285D01*
X87117623Y-59761372D01*
X86828533Y-59063446D01*
X86408839Y-58435330D01*
X85874670Y-57901161D01*
X85246554Y-57481467D01*
X84548628Y-57192377D01*
X83807715Y-57045000D01*
X83052285Y-57045000D01*
X82311372Y-57192377D01*
X81613446Y-57481467D01*
X80985330Y-57901161D01*
X80451161Y-58435330D01*
X80031467Y-59063446D01*
X79742377Y-59761372D01*
X79595000Y-60502285D01*
X79590000Y-60502285D01*
X79590000Y-58912279D01*
X79637670Y-58426107D01*
X79679577Y-58287304D01*
X81259371Y-56653034D01*
X81460113Y-56590894D01*
X81944344Y-56540000D01*
X177897721Y-56540000D01*
X178383893Y-56587670D01*
G37*
G04 #@! TD.AperFunction*
D20*
X98617000Y-67628000D02*
X98637000Y-67628000D01*
X98637000Y-67882000D01*
X98617000Y-67882000D01*
X98617000Y-67902000D01*
X98363000Y-67902000D01*
X98363000Y-67882000D01*
X98343000Y-67882000D01*
X98343000Y-67628000D01*
X98363000Y-67628000D01*
X98363000Y-67608000D01*
X98617000Y-67608000D01*
X98617000Y-67628000D01*
G04 #@! TA.AperFunction,Conductor*
D21*
G36*
X98617000Y-67628000D02*
G01*
X98637000Y-67628000D01*
X98637000Y-67882000D01*
X98617000Y-67882000D01*
X98617000Y-67902000D01*
X98363000Y-67902000D01*
X98363000Y-67882000D01*
X98343000Y-67882000D01*
X98343000Y-67628000D01*
X98363000Y-67628000D01*
X98363000Y-67608000D01*
X98617000Y-67608000D01*
X98617000Y-67628000D01*
G37*
G04 #@! TD.AperFunction*
M02*
