G04 #@! TF.GenerationSoftware,KiCad,Pcbnew,5.1.9+dfsg1-1~bpo10+1*
G04 #@! TF.CreationDate,2022-03-28T22:50:56+02:00*
G04 #@! TF.ProjectId,serial-wio,73657269-616c-42d7-9769-6f2e6b696361,rev?*
G04 #@! TF.SameCoordinates,Original*
G04 #@! TF.FileFunction,Legend,Bot*
G04 #@! TF.FilePolarity,Positive*
%FSLAX46Y46*%
G04 Gerber Fmt 4.6, Leading zero omitted, Abs format (unit mm)*
G04 Created by KiCad (PCBNEW 5.1.9+dfsg1-1~bpo10+1) date 2022-03-28 22:50:56*
%MOMM*%
%LPD*%
G01*
G04 APERTURE LIST*
%ADD10C,0.800000*%
%ADD11C,6.400000*%
%ADD12C,2.000000*%
%ADD13C,4.000000*%
%ADD14O,1.700000X1.700000*%
%ADD15R,1.700000X1.700000*%
G04 APERTURE END LIST*
%LPC*%
D10*
X178127056Y-103182944D03*
X176430000Y-102480000D03*
X174732944Y-103182944D03*
X174030000Y-104880000D03*
X174732944Y-106577056D03*
X176430000Y-107280000D03*
X178127056Y-106577056D03*
X178830000Y-104880000D03*
D11*
X176430000Y-104880000D03*
D10*
X153627056Y-103182944D03*
X151930000Y-102480000D03*
X150232944Y-103182944D03*
X149530000Y-104880000D03*
X150232944Y-106577056D03*
X151930000Y-107280000D03*
X153627056Y-106577056D03*
X154330000Y-104880000D03*
D11*
X151930000Y-104880000D03*
D10*
X85127056Y-103182944D03*
X83430000Y-102480000D03*
X81732944Y-103182944D03*
X81030000Y-104880000D03*
X81732944Y-106577056D03*
X83430000Y-107280000D03*
X85127056Y-106577056D03*
X85830000Y-104880000D03*
D11*
X83430000Y-104880000D03*
D10*
X85127056Y-59182944D03*
X83430000Y-58480000D03*
X81732944Y-59182944D03*
X81030000Y-60880000D03*
X81732944Y-62577056D03*
X83430000Y-63280000D03*
X85127056Y-62577056D03*
X85830000Y-60880000D03*
D11*
X83430000Y-60880000D03*
D10*
X153627056Y-59182944D03*
X151930000Y-58480000D03*
X150232944Y-59182944D03*
X149530000Y-60880000D03*
X150232944Y-62577056D03*
X151930000Y-63280000D03*
X153627056Y-62577056D03*
X154330000Y-60880000D03*
D11*
X151930000Y-60880000D03*
D10*
X178127056Y-59182944D03*
X176430000Y-58480000D03*
X174732944Y-59182944D03*
X174030000Y-60880000D03*
X174732944Y-62577056D03*
X176430000Y-63280000D03*
X178127056Y-62577056D03*
X178830000Y-60880000D03*
D11*
X176430000Y-60880000D03*
D12*
X151230000Y-98560000D03*
X151230000Y-88400000D03*
X161390000Y-98560000D03*
X161390000Y-88400000D03*
D13*
X155030000Y-93480000D03*
D12*
X151230000Y-76560000D03*
X151230000Y-66400000D03*
X161390000Y-76560000D03*
X161390000Y-66400000D03*
D13*
X155030000Y-71480000D03*
D14*
X161850000Y-103480000D03*
X164390000Y-103480000D03*
D15*
X166930000Y-103480000D03*
X88330000Y-67755000D03*
D14*
X88330000Y-65215000D03*
X90870000Y-67755000D03*
X90870000Y-65215000D03*
X93410000Y-67755000D03*
X93410000Y-65215000D03*
X95950000Y-67755000D03*
X95950000Y-65215000D03*
X98490000Y-67755000D03*
X98490000Y-65215000D03*
X101030000Y-67755000D03*
X101030000Y-65215000D03*
X103570000Y-67755000D03*
X103570000Y-65215000D03*
X106110000Y-67755000D03*
X106110000Y-65215000D03*
X108650000Y-67755000D03*
X108650000Y-65215000D03*
X111190000Y-67755000D03*
X111190000Y-65215000D03*
X113730000Y-67755000D03*
X113730000Y-65215000D03*
X116270000Y-67755000D03*
X116270000Y-65215000D03*
X118810000Y-67755000D03*
X118810000Y-65215000D03*
X121350000Y-67755000D03*
X121350000Y-65215000D03*
X123890000Y-67755000D03*
X123890000Y-65215000D03*
X126430000Y-67755000D03*
X126430000Y-65215000D03*
X128970000Y-67755000D03*
X128970000Y-65215000D03*
X131510000Y-67755000D03*
X131510000Y-65215000D03*
X134050000Y-67755000D03*
X134050000Y-65215000D03*
X136590000Y-67755000D03*
X136590000Y-65215000D03*
M02*
