%FSLAX45Y45*%
G04 Gerber Fmt 4.5, Leading zero omitted, Abs format (unit mm)*
G04 Created by KiCad (PCBNEW 5.1.9+dfsg1-1~bpo10+1) date 2022-03-28 22:51:13*
%MOMM*%
%LPD*%
G01*
G04 APERTURE LIST*
%TA.AperFunction,Profile*%
%ADD10C,0.050000*%
%TD*%
%ADD11C,0.200000*%
%ADD12C,0.300000*%
G04 APERTURE END LIST*
D10*
X18093000Y-5888000D02*
X18093000Y-10638000D01*
X7893000Y-5888000D02*
X7893000Y-10588000D01*
X18093000Y-10638000D02*
G75*
G02*
X17793000Y-10938000I-300000J0D01*
G01*
X17793000Y-5588000D02*
G75*
G02*
X18093000Y-5888000I0J-300000D01*
G01*
X7893000Y-5888000D02*
G75*
G02*
X8193000Y-5588000I300000J0D01*
G01*
X8193000Y-10938000D02*
G75*
G02*
X7893000Y-10638000I0J300000D01*
G01*
X8193000Y-10938000D02*
X17793000Y-10938000D01*
X7893000Y-10588000D02*
X7893000Y-10638000D01*
X8193000Y-5588000D02*
X17793000Y-5588000D01*
D11*
X10952800Y-7041200D02*
X10992800Y-7081200D01*
X10992800Y-7041200D02*
X10952800Y-7081200D01*
X15778800Y-8489000D02*
X15818800Y-8529000D01*
X15818800Y-8489000D02*
X15778800Y-8529000D01*
X16083600Y-8311200D02*
X16123600Y-8351200D01*
X16123600Y-8311200D02*
X16083600Y-8351200D01*
X17010700Y-8311200D02*
X17050700Y-8351200D01*
X17050700Y-8311200D02*
X17010700Y-8351200D01*
X8128000Y-6088000D02*
G75*
G03*
X8128000Y-6088000I-25000J0D01*
G01*
X8128000Y-10488000D02*
G75*
G03*
X8128000Y-10488000I-25000J0D01*
G01*
X8198294Y-5918294D02*
G75*
G03*
X8198294Y-5918294I-25000J0D01*
G01*
X8198294Y-6257706D02*
G75*
G03*
X8198294Y-6257706I-25000J0D01*
G01*
X8198294Y-10318294D02*
G75*
G03*
X8198294Y-10318294I-25000J0D01*
G01*
X8198294Y-10657706D02*
G75*
G03*
X8198294Y-10657706I-25000J0D01*
G01*
X8368000Y-5848000D02*
G75*
G03*
X8368000Y-5848000I-25000J0D01*
G01*
X8368000Y-6328000D02*
G75*
G03*
X8368000Y-6328000I-25000J0D01*
G01*
X8368000Y-10248000D02*
G75*
G03*
X8368000Y-10248000I-25000J0D01*
G01*
X8368000Y-10728000D02*
G75*
G03*
X8368000Y-10728000I-25000J0D01*
G01*
X8537706Y-5918294D02*
G75*
G03*
X8537706Y-5918294I-25000J0D01*
G01*
X8537706Y-6257706D02*
G75*
G03*
X8537706Y-6257706I-25000J0D01*
G01*
X8537706Y-10318294D02*
G75*
G03*
X8537706Y-10318294I-25000J0D01*
G01*
X8537706Y-10657706D02*
G75*
G03*
X8537706Y-10657706I-25000J0D01*
G01*
X8608000Y-6088000D02*
G75*
G03*
X8608000Y-6088000I-25000J0D01*
G01*
X8608000Y-10488000D02*
G75*
G03*
X8608000Y-10488000I-25000J0D01*
G01*
X14978000Y-6088000D02*
G75*
G03*
X14978000Y-6088000I-25000J0D01*
G01*
X14978000Y-10488000D02*
G75*
G03*
X14978000Y-10488000I-25000J0D01*
G01*
X15048294Y-5918294D02*
G75*
G03*
X15048294Y-5918294I-25000J0D01*
G01*
X15048294Y-6257706D02*
G75*
G03*
X15048294Y-6257706I-25000J0D01*
G01*
X15048294Y-10318294D02*
G75*
G03*
X15048294Y-10318294I-25000J0D01*
G01*
X15048294Y-10657706D02*
G75*
G03*
X15048294Y-10657706I-25000J0D01*
G01*
X15218000Y-5848000D02*
G75*
G03*
X15218000Y-5848000I-25000J0D01*
G01*
X15218000Y-6328000D02*
G75*
G03*
X15218000Y-6328000I-25000J0D01*
G01*
X15218000Y-10248000D02*
G75*
G03*
X15218000Y-10248000I-25000J0D01*
G01*
X15218000Y-10728000D02*
G75*
G03*
X15218000Y-10728000I-25000J0D01*
G01*
X15387706Y-5918294D02*
G75*
G03*
X15387706Y-5918294I-25000J0D01*
G01*
X15387706Y-6257706D02*
G75*
G03*
X15387706Y-6257706I-25000J0D01*
G01*
X15387706Y-10318294D02*
G75*
G03*
X15387706Y-10318294I-25000J0D01*
G01*
X15387706Y-10657706D02*
G75*
G03*
X15387706Y-10657706I-25000J0D01*
G01*
X15458000Y-6088000D02*
G75*
G03*
X15458000Y-6088000I-25000J0D01*
G01*
X15458000Y-10488000D02*
G75*
G03*
X15458000Y-10488000I-25000J0D01*
G01*
X17428000Y-6088000D02*
G75*
G03*
X17428000Y-6088000I-25000J0D01*
G01*
X17428000Y-10488000D02*
G75*
G03*
X17428000Y-10488000I-25000J0D01*
G01*
X17498294Y-5918294D02*
G75*
G03*
X17498294Y-5918294I-25000J0D01*
G01*
X17498294Y-6257706D02*
G75*
G03*
X17498294Y-6257706I-25000J0D01*
G01*
X17498294Y-10318294D02*
G75*
G03*
X17498294Y-10318294I-25000J0D01*
G01*
X17498294Y-10657706D02*
G75*
G03*
X17498294Y-10657706I-25000J0D01*
G01*
X17668000Y-5848000D02*
G75*
G03*
X17668000Y-5848000I-25000J0D01*
G01*
X17668000Y-6328000D02*
G75*
G03*
X17668000Y-6328000I-25000J0D01*
G01*
X17668000Y-10248000D02*
G75*
G03*
X17668000Y-10248000I-25000J0D01*
G01*
X17668000Y-10728000D02*
G75*
G03*
X17668000Y-10728000I-25000J0D01*
G01*
X17837706Y-5918294D02*
G75*
G03*
X17837706Y-5918294I-25000J0D01*
G01*
X17837706Y-6257706D02*
G75*
G03*
X17837706Y-6257706I-25000J0D01*
G01*
X17837706Y-10318294D02*
G75*
G03*
X17837706Y-10318294I-25000J0D01*
G01*
X17837706Y-10657706D02*
G75*
G03*
X17837706Y-10657706I-25000J0D01*
G01*
X17908000Y-6088000D02*
G75*
G03*
X17908000Y-6088000I-25000J0D01*
G01*
X17908000Y-10488000D02*
G75*
G03*
X17908000Y-10488000I-25000J0D01*
G01*
X8833000Y-6471500D02*
X8833000Y-6571500D01*
X8783000Y-6521500D02*
X8883000Y-6521500D01*
X8833000Y-6725500D02*
X8833000Y-6825500D01*
X8783000Y-6775500D02*
X8883000Y-6775500D01*
X9087000Y-6471500D02*
X9087000Y-6571500D01*
X9037000Y-6521500D02*
X9137000Y-6521500D01*
X9087000Y-6725500D02*
X9087000Y-6825500D01*
X9037000Y-6775500D02*
X9137000Y-6775500D01*
X9341000Y-6471500D02*
X9341000Y-6571500D01*
X9291000Y-6521500D02*
X9391000Y-6521500D01*
X9341000Y-6725500D02*
X9341000Y-6825500D01*
X9291000Y-6775500D02*
X9391000Y-6775500D01*
X9595000Y-6471500D02*
X9595000Y-6571500D01*
X9545000Y-6521500D02*
X9645000Y-6521500D01*
X9595000Y-6725500D02*
X9595000Y-6825500D01*
X9545000Y-6775500D02*
X9645000Y-6775500D01*
X9849000Y-6471500D02*
X9849000Y-6571500D01*
X9799000Y-6521500D02*
X9899000Y-6521500D01*
X9849000Y-6725500D02*
X9849000Y-6825500D01*
X9799000Y-6775500D02*
X9899000Y-6775500D01*
X10103000Y-6471500D02*
X10103000Y-6571500D01*
X10053000Y-6521500D02*
X10153000Y-6521500D01*
X10103000Y-6725500D02*
X10103000Y-6825500D01*
X10053000Y-6775500D02*
X10153000Y-6775500D01*
X10357000Y-6471500D02*
X10357000Y-6571500D01*
X10307000Y-6521500D02*
X10407000Y-6521500D01*
X10357000Y-6725500D02*
X10357000Y-6825500D01*
X10307000Y-6775500D02*
X10407000Y-6775500D01*
X10611000Y-6471500D02*
X10611000Y-6571500D01*
X10561000Y-6521500D02*
X10661000Y-6521500D01*
X10611000Y-6725500D02*
X10611000Y-6825500D01*
X10561000Y-6775500D02*
X10661000Y-6775500D01*
X10865000Y-6471500D02*
X10865000Y-6571500D01*
X10815000Y-6521500D02*
X10915000Y-6521500D01*
X10865000Y-6725500D02*
X10865000Y-6825500D01*
X10815000Y-6775500D02*
X10915000Y-6775500D01*
X11119000Y-6471500D02*
X11119000Y-6571500D01*
X11069000Y-6521500D02*
X11169000Y-6521500D01*
X11119000Y-6725500D02*
X11119000Y-6825500D01*
X11069000Y-6775500D02*
X11169000Y-6775500D01*
X11373000Y-6471500D02*
X11373000Y-6571500D01*
X11323000Y-6521500D02*
X11423000Y-6521500D01*
X11373000Y-6725500D02*
X11373000Y-6825500D01*
X11323000Y-6775500D02*
X11423000Y-6775500D01*
X11627000Y-6471500D02*
X11627000Y-6571500D01*
X11577000Y-6521500D02*
X11677000Y-6521500D01*
X11627000Y-6725500D02*
X11627000Y-6825500D01*
X11577000Y-6775500D02*
X11677000Y-6775500D01*
X11881000Y-6471500D02*
X11881000Y-6571500D01*
X11831000Y-6521500D02*
X11931000Y-6521500D01*
X11881000Y-6725500D02*
X11881000Y-6825500D01*
X11831000Y-6775500D02*
X11931000Y-6775500D01*
X12135000Y-6471500D02*
X12135000Y-6571500D01*
X12085000Y-6521500D02*
X12185000Y-6521500D01*
X12135000Y-6725500D02*
X12135000Y-6825500D01*
X12085000Y-6775500D02*
X12185000Y-6775500D01*
X12389000Y-6471500D02*
X12389000Y-6571500D01*
X12339000Y-6521500D02*
X12439000Y-6521500D01*
X12389000Y-6725500D02*
X12389000Y-6825500D01*
X12339000Y-6775500D02*
X12439000Y-6775500D01*
X12643000Y-6471500D02*
X12643000Y-6571500D01*
X12593000Y-6521500D02*
X12693000Y-6521500D01*
X12643000Y-6725500D02*
X12643000Y-6825500D01*
X12593000Y-6775500D02*
X12693000Y-6775500D01*
X12897000Y-6471500D02*
X12897000Y-6571500D01*
X12847000Y-6521500D02*
X12947000Y-6521500D01*
X12897000Y-6725500D02*
X12897000Y-6825500D01*
X12847000Y-6775500D02*
X12947000Y-6775500D01*
X13151000Y-6471500D02*
X13151000Y-6571500D01*
X13101000Y-6521500D02*
X13201000Y-6521500D01*
X13151000Y-6725500D02*
X13151000Y-6825500D01*
X13101000Y-6775500D02*
X13201000Y-6775500D01*
X13405000Y-6471500D02*
X13405000Y-6571500D01*
X13355000Y-6521500D02*
X13455000Y-6521500D01*
X13405000Y-6725500D02*
X13405000Y-6825500D01*
X13355000Y-6775500D02*
X13455000Y-6775500D01*
X13659000Y-6471500D02*
X13659000Y-6571500D01*
X13609000Y-6521500D02*
X13709000Y-6521500D01*
X13659000Y-6725500D02*
X13659000Y-6825500D01*
X13609000Y-6775500D02*
X13709000Y-6775500D01*
X16185000Y-10298000D02*
X16185000Y-10398000D01*
X16135000Y-10348000D02*
X16235000Y-10348000D01*
X16439000Y-10298000D02*
X16439000Y-10398000D01*
X16389000Y-10348000D02*
X16489000Y-10348000D01*
X16693000Y-10298000D02*
X16693000Y-10398000D01*
X16643000Y-10348000D02*
X16743000Y-10348000D01*
X15165427Y-6682427D02*
X15165427Y-6597573D01*
X15080573Y-6597573D01*
X15080573Y-6682427D01*
X15165427Y-6682427D01*
X15165427Y-7698427D02*
X15165427Y-7613573D01*
X15080573Y-7613573D01*
X15080573Y-7698427D01*
X15165427Y-7698427D01*
X15165427Y-8882427D02*
X15165427Y-8797573D01*
X15080573Y-8797573D01*
X15080573Y-8882427D01*
X15165427Y-8882427D01*
X15165427Y-9898427D02*
X15165427Y-9813573D01*
X15080573Y-9813573D01*
X15080573Y-9898427D01*
X15165427Y-9898427D01*
X16181427Y-6682427D02*
X16181427Y-6597573D01*
X16096573Y-6597573D01*
X16096573Y-6682427D01*
X16181427Y-6682427D01*
X16181427Y-7698427D02*
X16181427Y-7613573D01*
X16096573Y-7613573D01*
X16096573Y-7698427D01*
X16181427Y-7698427D01*
X16181427Y-8882427D02*
X16181427Y-8797573D01*
X16096573Y-8797573D01*
X16096573Y-8882427D01*
X16181427Y-8882427D01*
X16181427Y-9898427D02*
X16181427Y-9813573D01*
X16096573Y-9813573D01*
X16096573Y-9898427D01*
X16181427Y-9898427D01*
X15503000Y-7258000D02*
X15613000Y-7148000D01*
X15503000Y-7038000D01*
X15393000Y-7148000D01*
X15503000Y-7258000D01*
X15503000Y-9458000D02*
X15613000Y-9348000D01*
X15503000Y-9238000D01*
X15393000Y-9348000D01*
X15503000Y-9458000D01*
X8183000Y-5928000D02*
X8503000Y-6248000D01*
X8503000Y-5928000D02*
X8183000Y-6248000D01*
X8503000Y-6088000D02*
G75*
G03*
X8503000Y-6088000I-160000J0D01*
G01*
X8183000Y-10328000D02*
X8503000Y-10648000D01*
X8503000Y-10328000D02*
X8183000Y-10648000D01*
X8503000Y-10488000D02*
G75*
G03*
X8503000Y-10488000I-160000J0D01*
G01*
X15033000Y-5928000D02*
X15353000Y-6248000D01*
X15353000Y-5928000D02*
X15033000Y-6248000D01*
X15353000Y-6088000D02*
G75*
G03*
X15353000Y-6088000I-160000J0D01*
G01*
X15033000Y-10328000D02*
X15353000Y-10648000D01*
X15353000Y-10328000D02*
X15033000Y-10648000D01*
X15353000Y-10488000D02*
G75*
G03*
X15353000Y-10488000I-160000J0D01*
G01*
X17483000Y-5928000D02*
X17803000Y-6248000D01*
X17803000Y-5928000D02*
X17483000Y-6248000D01*
X17803000Y-6088000D02*
G75*
G03*
X17803000Y-6088000I-160000J0D01*
G01*
X17483000Y-10328000D02*
X17803000Y-10648000D01*
X17803000Y-10328000D02*
X17483000Y-10648000D01*
X17803000Y-10488000D02*
G75*
G03*
X17803000Y-10488000I-160000J0D01*
G01*
D12*
X8176928Y-11406214D02*
X8176928Y-11106214D01*
X8248357Y-11106214D01*
X8291214Y-11120500D01*
X8319786Y-11149072D01*
X8334071Y-11177643D01*
X8348357Y-11234786D01*
X8348357Y-11277643D01*
X8334071Y-11334786D01*
X8319786Y-11363357D01*
X8291214Y-11391929D01*
X8248357Y-11406214D01*
X8176928Y-11406214D01*
X8476928Y-11406214D02*
X8476928Y-11206214D01*
X8476928Y-11263357D02*
X8491214Y-11234786D01*
X8505500Y-11220500D01*
X8534071Y-11206214D01*
X8562643Y-11206214D01*
X8662643Y-11406214D02*
X8662643Y-11206214D01*
X8662643Y-11106214D02*
X8648357Y-11120500D01*
X8662643Y-11134786D01*
X8676928Y-11120500D01*
X8662643Y-11106214D01*
X8662643Y-11134786D01*
X8848357Y-11406214D02*
X8819786Y-11391929D01*
X8805500Y-11363357D01*
X8805500Y-11106214D01*
X9005500Y-11406214D02*
X8976928Y-11391929D01*
X8962643Y-11363357D01*
X8962643Y-11106214D01*
X9348357Y-11406214D02*
X9348357Y-11106214D01*
X9448357Y-11320500D01*
X9548357Y-11106214D01*
X9548357Y-11406214D01*
X9819786Y-11406214D02*
X9819786Y-11249071D01*
X9805500Y-11220500D01*
X9776928Y-11206214D01*
X9719786Y-11206214D01*
X9691214Y-11220500D01*
X9819786Y-11391929D02*
X9791214Y-11406214D01*
X9719786Y-11406214D01*
X9691214Y-11391929D01*
X9676928Y-11363357D01*
X9676928Y-11334786D01*
X9691214Y-11306214D01*
X9719786Y-11291929D01*
X9791214Y-11291929D01*
X9819786Y-11277643D01*
X9962643Y-11206214D02*
X9962643Y-11506214D01*
X9962643Y-11220500D02*
X9991214Y-11206214D01*
X10048357Y-11206214D01*
X10076928Y-11220500D01*
X10091214Y-11234786D01*
X10105500Y-11263357D01*
X10105500Y-11349071D01*
X10091214Y-11377643D01*
X10076928Y-11391929D01*
X10048357Y-11406214D01*
X9991214Y-11406214D01*
X9962643Y-11391929D01*
X10234071Y-11377643D02*
X10248357Y-11391929D01*
X10234071Y-11406214D01*
X10219786Y-11391929D01*
X10234071Y-11377643D01*
X10234071Y-11406214D01*
X10234071Y-11220500D02*
X10248357Y-11234786D01*
X10234071Y-11249071D01*
X10219786Y-11234786D01*
X10234071Y-11220500D01*
X10234071Y-11249071D01*
X7850500Y-11880500D02*
X7890500Y-11920500D01*
X7890500Y-11880500D02*
X7850500Y-11920500D01*
X8234071Y-11736214D02*
X8262643Y-11736214D01*
X8291214Y-11750500D01*
X8305500Y-11764786D01*
X8319786Y-11793357D01*
X8334071Y-11850500D01*
X8334071Y-11921929D01*
X8319786Y-11979071D01*
X8305500Y-12007643D01*
X8291214Y-12021929D01*
X8262643Y-12036214D01*
X8234071Y-12036214D01*
X8205500Y-12021929D01*
X8191214Y-12007643D01*
X8176928Y-11979071D01*
X8162643Y-11921929D01*
X8162643Y-11850500D01*
X8176928Y-11793357D01*
X8191214Y-11764786D01*
X8205500Y-11750500D01*
X8234071Y-11736214D01*
X8462643Y-12007643D02*
X8476928Y-12021929D01*
X8462643Y-12036214D01*
X8448357Y-12021929D01*
X8462643Y-12007643D01*
X8462643Y-12036214D01*
X8734071Y-11836214D02*
X8734071Y-12036214D01*
X8662643Y-11721929D02*
X8591214Y-11936214D01*
X8776928Y-11936214D01*
X8948357Y-11736214D02*
X8976928Y-11736214D01*
X9005500Y-11750500D01*
X9019786Y-11764786D01*
X9034071Y-11793357D01*
X9048357Y-11850500D01*
X9048357Y-11921929D01*
X9034071Y-11979071D01*
X9019786Y-12007643D01*
X9005500Y-12021929D01*
X8976928Y-12036214D01*
X8948357Y-12036214D01*
X8919786Y-12021929D01*
X8905500Y-12007643D01*
X8891214Y-11979071D01*
X8876928Y-11921929D01*
X8876928Y-11850500D01*
X8891214Y-11793357D01*
X8905500Y-11764786D01*
X8919786Y-11750500D01*
X8948357Y-11736214D01*
X9176928Y-12036214D02*
X9176928Y-11836214D01*
X9176928Y-11864786D02*
X9191214Y-11850500D01*
X9219786Y-11836214D01*
X9262643Y-11836214D01*
X9291214Y-11850500D01*
X9305500Y-11879071D01*
X9305500Y-12036214D01*
X9305500Y-11879071D02*
X9319786Y-11850500D01*
X9348357Y-11836214D01*
X9391214Y-11836214D01*
X9419786Y-11850500D01*
X9434071Y-11879071D01*
X9434071Y-12036214D01*
X9576928Y-12036214D02*
X9576928Y-11836214D01*
X9576928Y-11864786D02*
X9591214Y-11850500D01*
X9619786Y-11836214D01*
X9662643Y-11836214D01*
X9691214Y-11850500D01*
X9705500Y-11879071D01*
X9705500Y-12036214D01*
X9705500Y-11879071D02*
X9719786Y-11850500D01*
X9748357Y-11836214D01*
X9791214Y-11836214D01*
X9819786Y-11850500D01*
X9834071Y-11879071D01*
X9834071Y-12036214D01*
X10419786Y-11721929D02*
X10162643Y-12107643D01*
X10805500Y-11736214D02*
X10834071Y-11736214D01*
X10862643Y-11750500D01*
X10876928Y-11764786D01*
X10891214Y-11793357D01*
X10905500Y-11850500D01*
X10905500Y-11921929D01*
X10891214Y-11979071D01*
X10876928Y-12007643D01*
X10862643Y-12021929D01*
X10834071Y-12036214D01*
X10805500Y-12036214D01*
X10776928Y-12021929D01*
X10762643Y-12007643D01*
X10748357Y-11979071D01*
X10734071Y-11921929D01*
X10734071Y-11850500D01*
X10748357Y-11793357D01*
X10762643Y-11764786D01*
X10776928Y-11750500D01*
X10805500Y-11736214D01*
X11034071Y-12007643D02*
X11048357Y-12021929D01*
X11034071Y-12036214D01*
X11019786Y-12021929D01*
X11034071Y-12007643D01*
X11034071Y-12036214D01*
X11234071Y-11736214D02*
X11262643Y-11736214D01*
X11291214Y-11750500D01*
X11305500Y-11764786D01*
X11319786Y-11793357D01*
X11334071Y-11850500D01*
X11334071Y-11921929D01*
X11319786Y-11979071D01*
X11305500Y-12007643D01*
X11291214Y-12021929D01*
X11262643Y-12036214D01*
X11234071Y-12036214D01*
X11205500Y-12021929D01*
X11191214Y-12007643D01*
X11176928Y-11979071D01*
X11162643Y-11921929D01*
X11162643Y-11850500D01*
X11176928Y-11793357D01*
X11191214Y-11764786D01*
X11205500Y-11750500D01*
X11234071Y-11736214D01*
X11619786Y-12036214D02*
X11448357Y-12036214D01*
X11534071Y-12036214D02*
X11534071Y-11736214D01*
X11505500Y-11779071D01*
X11476928Y-11807643D01*
X11448357Y-11821929D01*
X11876928Y-11736214D02*
X11819786Y-11736214D01*
X11791214Y-11750500D01*
X11776928Y-11764786D01*
X11748357Y-11807643D01*
X11734071Y-11864786D01*
X11734071Y-11979071D01*
X11748357Y-12007643D01*
X11762643Y-12021929D01*
X11791214Y-12036214D01*
X11848357Y-12036214D01*
X11876928Y-12021929D01*
X11891214Y-12007643D01*
X11905500Y-11979071D01*
X11905500Y-11907643D01*
X11891214Y-11879071D01*
X11876928Y-11864786D01*
X11848357Y-11850500D01*
X11791214Y-11850500D01*
X11762643Y-11864786D01*
X11748357Y-11879071D01*
X11734071Y-11907643D01*
X12019786Y-11736214D02*
X12019786Y-11793357D01*
X12134071Y-11736214D02*
X12134071Y-11793357D01*
X12576928Y-12150500D02*
X12562643Y-12136214D01*
X12534071Y-12093357D01*
X12519786Y-12064786D01*
X12505500Y-12021929D01*
X12491214Y-11950500D01*
X12491214Y-11893357D01*
X12505500Y-11821929D01*
X12519786Y-11779071D01*
X12534071Y-11750500D01*
X12562643Y-11707643D01*
X12576928Y-11693357D01*
X12819786Y-11836214D02*
X12819786Y-12036214D01*
X12748357Y-11721929D02*
X12676928Y-11936214D01*
X12862643Y-11936214D01*
X13205500Y-12036214D02*
X13205500Y-11736214D01*
X13334071Y-12036214D02*
X13334071Y-11879071D01*
X13319786Y-11850500D01*
X13291214Y-11836214D01*
X13248357Y-11836214D01*
X13219786Y-11850500D01*
X13205500Y-11864786D01*
X13519786Y-12036214D02*
X13491214Y-12021929D01*
X13476928Y-12007643D01*
X13462643Y-11979071D01*
X13462643Y-11893357D01*
X13476928Y-11864786D01*
X13491214Y-11850500D01*
X13519786Y-11836214D01*
X13562643Y-11836214D01*
X13591214Y-11850500D01*
X13605500Y-11864786D01*
X13619786Y-11893357D01*
X13619786Y-11979071D01*
X13605500Y-12007643D01*
X13591214Y-12021929D01*
X13562643Y-12036214D01*
X13519786Y-12036214D01*
X13791214Y-12036214D02*
X13762643Y-12021929D01*
X13748357Y-11993357D01*
X13748357Y-11736214D01*
X14019786Y-12021929D02*
X13991214Y-12036214D01*
X13934071Y-12036214D01*
X13905500Y-12021929D01*
X13891214Y-11993357D01*
X13891214Y-11879071D01*
X13905500Y-11850500D01*
X13934071Y-11836214D01*
X13991214Y-11836214D01*
X14019786Y-11850500D01*
X14034071Y-11879071D01*
X14034071Y-11907643D01*
X13891214Y-11936214D01*
X14148357Y-12021929D02*
X14176928Y-12036214D01*
X14234071Y-12036214D01*
X14262643Y-12021929D01*
X14276928Y-11993357D01*
X14276928Y-11979071D01*
X14262643Y-11950500D01*
X14234071Y-11936214D01*
X14191214Y-11936214D01*
X14162643Y-11921929D01*
X14148357Y-11893357D01*
X14148357Y-11879071D01*
X14162643Y-11850500D01*
X14191214Y-11836214D01*
X14234071Y-11836214D01*
X14262643Y-11850500D01*
X14376928Y-12150500D02*
X14391214Y-12136214D01*
X14419786Y-12093357D01*
X14434071Y-12064786D01*
X14448357Y-12021929D01*
X14462643Y-11950500D01*
X14462643Y-11893357D01*
X14448357Y-11821929D01*
X14434071Y-11779071D01*
X14419786Y-11750500D01*
X14391214Y-11707643D01*
X14376928Y-11693357D01*
X7890500Y-12296500D02*
G75*
G03*
X7890500Y-12296500I-25000J0D01*
G01*
X8234071Y-12132214D02*
X8262643Y-12132214D01*
X8291214Y-12146500D01*
X8305500Y-12160786D01*
X8319786Y-12189357D01*
X8334071Y-12246500D01*
X8334071Y-12317929D01*
X8319786Y-12375071D01*
X8305500Y-12403643D01*
X8291214Y-12417929D01*
X8262643Y-12432214D01*
X8234071Y-12432214D01*
X8205500Y-12417929D01*
X8191214Y-12403643D01*
X8176928Y-12375071D01*
X8162643Y-12317929D01*
X8162643Y-12246500D01*
X8176928Y-12189357D01*
X8191214Y-12160786D01*
X8205500Y-12146500D01*
X8234071Y-12132214D01*
X8462643Y-12403643D02*
X8476928Y-12417929D01*
X8462643Y-12432214D01*
X8448357Y-12417929D01*
X8462643Y-12403643D01*
X8462643Y-12432214D01*
X8748357Y-12132214D02*
X8605500Y-12132214D01*
X8591214Y-12275071D01*
X8605500Y-12260786D01*
X8634071Y-12246500D01*
X8705500Y-12246500D01*
X8734071Y-12260786D01*
X8748357Y-12275071D01*
X8762643Y-12303643D01*
X8762643Y-12375071D01*
X8748357Y-12403643D01*
X8734071Y-12417929D01*
X8705500Y-12432214D01*
X8634071Y-12432214D01*
X8605500Y-12417929D01*
X8591214Y-12403643D01*
X8948357Y-12132214D02*
X8976928Y-12132214D01*
X9005500Y-12146500D01*
X9019786Y-12160786D01*
X9034071Y-12189357D01*
X9048357Y-12246500D01*
X9048357Y-12317929D01*
X9034071Y-12375071D01*
X9019786Y-12403643D01*
X9005500Y-12417929D01*
X8976928Y-12432214D01*
X8948357Y-12432214D01*
X8919786Y-12417929D01*
X8905500Y-12403643D01*
X8891214Y-12375071D01*
X8876928Y-12317929D01*
X8876928Y-12246500D01*
X8891214Y-12189357D01*
X8905500Y-12160786D01*
X8919786Y-12146500D01*
X8948357Y-12132214D01*
X9176928Y-12432214D02*
X9176928Y-12232214D01*
X9176928Y-12260786D02*
X9191214Y-12246500D01*
X9219786Y-12232214D01*
X9262643Y-12232214D01*
X9291214Y-12246500D01*
X9305500Y-12275071D01*
X9305500Y-12432214D01*
X9305500Y-12275071D02*
X9319786Y-12246500D01*
X9348357Y-12232214D01*
X9391214Y-12232214D01*
X9419786Y-12246500D01*
X9434071Y-12275071D01*
X9434071Y-12432214D01*
X9576928Y-12432214D02*
X9576928Y-12232214D01*
X9576928Y-12260786D02*
X9591214Y-12246500D01*
X9619786Y-12232214D01*
X9662643Y-12232214D01*
X9691214Y-12246500D01*
X9705500Y-12275071D01*
X9705500Y-12432214D01*
X9705500Y-12275071D02*
X9719786Y-12246500D01*
X9748357Y-12232214D01*
X9791214Y-12232214D01*
X9819786Y-12246500D01*
X9834071Y-12275071D01*
X9834071Y-12432214D01*
X10419786Y-12117929D02*
X10162643Y-12503643D01*
X10805500Y-12132214D02*
X10834071Y-12132214D01*
X10862643Y-12146500D01*
X10876928Y-12160786D01*
X10891214Y-12189357D01*
X10905500Y-12246500D01*
X10905500Y-12317929D01*
X10891214Y-12375071D01*
X10876928Y-12403643D01*
X10862643Y-12417929D01*
X10834071Y-12432214D01*
X10805500Y-12432214D01*
X10776928Y-12417929D01*
X10762643Y-12403643D01*
X10748357Y-12375071D01*
X10734071Y-12317929D01*
X10734071Y-12246500D01*
X10748357Y-12189357D01*
X10762643Y-12160786D01*
X10776928Y-12146500D01*
X10805500Y-12132214D01*
X11034071Y-12403643D02*
X11048357Y-12417929D01*
X11034071Y-12432214D01*
X11019786Y-12417929D01*
X11034071Y-12403643D01*
X11034071Y-12432214D01*
X11234071Y-12132214D02*
X11262643Y-12132214D01*
X11291214Y-12146500D01*
X11305500Y-12160786D01*
X11319786Y-12189357D01*
X11334071Y-12246500D01*
X11334071Y-12317929D01*
X11319786Y-12375071D01*
X11305500Y-12403643D01*
X11291214Y-12417929D01*
X11262643Y-12432214D01*
X11234071Y-12432214D01*
X11205500Y-12417929D01*
X11191214Y-12403643D01*
X11176928Y-12375071D01*
X11162643Y-12317929D01*
X11162643Y-12246500D01*
X11176928Y-12189357D01*
X11191214Y-12160786D01*
X11205500Y-12146500D01*
X11234071Y-12132214D01*
X11448357Y-12160786D02*
X11462643Y-12146500D01*
X11491214Y-12132214D01*
X11562643Y-12132214D01*
X11591214Y-12146500D01*
X11605500Y-12160786D01*
X11619786Y-12189357D01*
X11619786Y-12217929D01*
X11605500Y-12260786D01*
X11434071Y-12432214D01*
X11619786Y-12432214D01*
X11805500Y-12132214D02*
X11834071Y-12132214D01*
X11862643Y-12146500D01*
X11876928Y-12160786D01*
X11891214Y-12189357D01*
X11905500Y-12246500D01*
X11905500Y-12317929D01*
X11891214Y-12375071D01*
X11876928Y-12403643D01*
X11862643Y-12417929D01*
X11834071Y-12432214D01*
X11805500Y-12432214D01*
X11776928Y-12417929D01*
X11762643Y-12403643D01*
X11748357Y-12375071D01*
X11734071Y-12317929D01*
X11734071Y-12246500D01*
X11748357Y-12189357D01*
X11762643Y-12160786D01*
X11776928Y-12146500D01*
X11805500Y-12132214D01*
X12019786Y-12132214D02*
X12019786Y-12189357D01*
X12134071Y-12132214D02*
X12134071Y-12189357D01*
X12576928Y-12546500D02*
X12562643Y-12532214D01*
X12534071Y-12489357D01*
X12519786Y-12460786D01*
X12505500Y-12417929D01*
X12491214Y-12346500D01*
X12491214Y-12289357D01*
X12505500Y-12217929D01*
X12519786Y-12175071D01*
X12534071Y-12146500D01*
X12562643Y-12103643D01*
X12576928Y-12089357D01*
X12819786Y-12232214D02*
X12819786Y-12432214D01*
X12748357Y-12117929D02*
X12676928Y-12332214D01*
X12862643Y-12332214D01*
X13019786Y-12260786D02*
X12991214Y-12246500D01*
X12976928Y-12232214D01*
X12962643Y-12203643D01*
X12962643Y-12189357D01*
X12976928Y-12160786D01*
X12991214Y-12146500D01*
X13019786Y-12132214D01*
X13076928Y-12132214D01*
X13105500Y-12146500D01*
X13119786Y-12160786D01*
X13134071Y-12189357D01*
X13134071Y-12203643D01*
X13119786Y-12232214D01*
X13105500Y-12246500D01*
X13076928Y-12260786D01*
X13019786Y-12260786D01*
X12991214Y-12275071D01*
X12976928Y-12289357D01*
X12962643Y-12317929D01*
X12962643Y-12375071D01*
X12976928Y-12403643D01*
X12991214Y-12417929D01*
X13019786Y-12432214D01*
X13076928Y-12432214D01*
X13105500Y-12417929D01*
X13119786Y-12403643D01*
X13134071Y-12375071D01*
X13134071Y-12317929D01*
X13119786Y-12289357D01*
X13105500Y-12275071D01*
X13076928Y-12260786D01*
X13491214Y-12432214D02*
X13491214Y-12132214D01*
X13619786Y-12432214D02*
X13619786Y-12275071D01*
X13605500Y-12246500D01*
X13576928Y-12232214D01*
X13534071Y-12232214D01*
X13505500Y-12246500D01*
X13491214Y-12260786D01*
X13805500Y-12432214D02*
X13776928Y-12417929D01*
X13762643Y-12403643D01*
X13748357Y-12375071D01*
X13748357Y-12289357D01*
X13762643Y-12260786D01*
X13776928Y-12246500D01*
X13805500Y-12232214D01*
X13848357Y-12232214D01*
X13876928Y-12246500D01*
X13891214Y-12260786D01*
X13905500Y-12289357D01*
X13905500Y-12375071D01*
X13891214Y-12403643D01*
X13876928Y-12417929D01*
X13848357Y-12432214D01*
X13805500Y-12432214D01*
X14076928Y-12432214D02*
X14048357Y-12417929D01*
X14034071Y-12389357D01*
X14034071Y-12132214D01*
X14305500Y-12417929D02*
X14276928Y-12432214D01*
X14219786Y-12432214D01*
X14191214Y-12417929D01*
X14176928Y-12389357D01*
X14176928Y-12275071D01*
X14191214Y-12246500D01*
X14219786Y-12232214D01*
X14276928Y-12232214D01*
X14305500Y-12246500D01*
X14319786Y-12275071D01*
X14319786Y-12303643D01*
X14176928Y-12332214D01*
X14434071Y-12417929D02*
X14462643Y-12432214D01*
X14519786Y-12432214D01*
X14548357Y-12417929D01*
X14562643Y-12389357D01*
X14562643Y-12375071D01*
X14548357Y-12346500D01*
X14519786Y-12332214D01*
X14476928Y-12332214D01*
X14448357Y-12317929D01*
X14434071Y-12289357D01*
X14434071Y-12275071D01*
X14448357Y-12246500D01*
X14476928Y-12232214D01*
X14519786Y-12232214D01*
X14548357Y-12246500D01*
X14662643Y-12546500D02*
X14676928Y-12532214D01*
X14705500Y-12489357D01*
X14719786Y-12460786D01*
X14734071Y-12417929D01*
X14748357Y-12346500D01*
X14748357Y-12289357D01*
X14734071Y-12217929D01*
X14719786Y-12175071D01*
X14705500Y-12146500D01*
X14676928Y-12103643D01*
X14662643Y-12089357D01*
X7840500Y-12642500D02*
X7840500Y-12742500D01*
X7790500Y-12692500D02*
X7890500Y-12692500D01*
X8334071Y-12828214D02*
X8162643Y-12828214D01*
X8248357Y-12828214D02*
X8248357Y-12528214D01*
X8219786Y-12571071D01*
X8191214Y-12599643D01*
X8162643Y-12613929D01*
X8462643Y-12799643D02*
X8476928Y-12813929D01*
X8462643Y-12828214D01*
X8448357Y-12813929D01*
X8462643Y-12799643D01*
X8462643Y-12828214D01*
X8662643Y-12528214D02*
X8691214Y-12528214D01*
X8719786Y-12542500D01*
X8734071Y-12556786D01*
X8748357Y-12585357D01*
X8762643Y-12642500D01*
X8762643Y-12713929D01*
X8748357Y-12771071D01*
X8734071Y-12799643D01*
X8719786Y-12813929D01*
X8691214Y-12828214D01*
X8662643Y-12828214D01*
X8634071Y-12813929D01*
X8619786Y-12799643D01*
X8605500Y-12771071D01*
X8591214Y-12713929D01*
X8591214Y-12642500D01*
X8605500Y-12585357D01*
X8619786Y-12556786D01*
X8634071Y-12542500D01*
X8662643Y-12528214D01*
X8948357Y-12528214D02*
X8976928Y-12528214D01*
X9005500Y-12542500D01*
X9019786Y-12556786D01*
X9034071Y-12585357D01*
X9048357Y-12642500D01*
X9048357Y-12713929D01*
X9034071Y-12771071D01*
X9019786Y-12799643D01*
X9005500Y-12813929D01*
X8976928Y-12828214D01*
X8948357Y-12828214D01*
X8919786Y-12813929D01*
X8905500Y-12799643D01*
X8891214Y-12771071D01*
X8876928Y-12713929D01*
X8876928Y-12642500D01*
X8891214Y-12585357D01*
X8905500Y-12556786D01*
X8919786Y-12542500D01*
X8948357Y-12528214D01*
X9176928Y-12828214D02*
X9176928Y-12628214D01*
X9176928Y-12656786D02*
X9191214Y-12642500D01*
X9219786Y-12628214D01*
X9262643Y-12628214D01*
X9291214Y-12642500D01*
X9305500Y-12671071D01*
X9305500Y-12828214D01*
X9305500Y-12671071D02*
X9319786Y-12642500D01*
X9348357Y-12628214D01*
X9391214Y-12628214D01*
X9419786Y-12642500D01*
X9434071Y-12671071D01*
X9434071Y-12828214D01*
X9576928Y-12828214D02*
X9576928Y-12628214D01*
X9576928Y-12656786D02*
X9591214Y-12642500D01*
X9619786Y-12628214D01*
X9662643Y-12628214D01*
X9691214Y-12642500D01*
X9705500Y-12671071D01*
X9705500Y-12828214D01*
X9705500Y-12671071D02*
X9719786Y-12642500D01*
X9748357Y-12628214D01*
X9791214Y-12628214D01*
X9819786Y-12642500D01*
X9834071Y-12671071D01*
X9834071Y-12828214D01*
X10419786Y-12513929D02*
X10162643Y-12899643D01*
X10805500Y-12528214D02*
X10834071Y-12528214D01*
X10862643Y-12542500D01*
X10876928Y-12556786D01*
X10891214Y-12585357D01*
X10905500Y-12642500D01*
X10905500Y-12713929D01*
X10891214Y-12771071D01*
X10876928Y-12799643D01*
X10862643Y-12813929D01*
X10834071Y-12828214D01*
X10805500Y-12828214D01*
X10776928Y-12813929D01*
X10762643Y-12799643D01*
X10748357Y-12771071D01*
X10734071Y-12713929D01*
X10734071Y-12642500D01*
X10748357Y-12585357D01*
X10762643Y-12556786D01*
X10776928Y-12542500D01*
X10805500Y-12528214D01*
X11034071Y-12799643D02*
X11048357Y-12813929D01*
X11034071Y-12828214D01*
X11019786Y-12813929D01*
X11034071Y-12799643D01*
X11034071Y-12828214D01*
X11234071Y-12528214D02*
X11262643Y-12528214D01*
X11291214Y-12542500D01*
X11305500Y-12556786D01*
X11319786Y-12585357D01*
X11334071Y-12642500D01*
X11334071Y-12713929D01*
X11319786Y-12771071D01*
X11305500Y-12799643D01*
X11291214Y-12813929D01*
X11262643Y-12828214D01*
X11234071Y-12828214D01*
X11205500Y-12813929D01*
X11191214Y-12799643D01*
X11176928Y-12771071D01*
X11162643Y-12713929D01*
X11162643Y-12642500D01*
X11176928Y-12585357D01*
X11191214Y-12556786D01*
X11205500Y-12542500D01*
X11234071Y-12528214D01*
X11434071Y-12528214D02*
X11619786Y-12528214D01*
X11519786Y-12642500D01*
X11562643Y-12642500D01*
X11591214Y-12656786D01*
X11605500Y-12671071D01*
X11619786Y-12699643D01*
X11619786Y-12771071D01*
X11605500Y-12799643D01*
X11591214Y-12813929D01*
X11562643Y-12828214D01*
X11476928Y-12828214D01*
X11448357Y-12813929D01*
X11434071Y-12799643D01*
X11762643Y-12828214D02*
X11819786Y-12828214D01*
X11848357Y-12813929D01*
X11862643Y-12799643D01*
X11891214Y-12756786D01*
X11905500Y-12699643D01*
X11905500Y-12585357D01*
X11891214Y-12556786D01*
X11876928Y-12542500D01*
X11848357Y-12528214D01*
X11791214Y-12528214D01*
X11762643Y-12542500D01*
X11748357Y-12556786D01*
X11734071Y-12585357D01*
X11734071Y-12656786D01*
X11748357Y-12685357D01*
X11762643Y-12699643D01*
X11791214Y-12713929D01*
X11848357Y-12713929D01*
X11876928Y-12699643D01*
X11891214Y-12685357D01*
X11905500Y-12656786D01*
X12019786Y-12528214D02*
X12019786Y-12585357D01*
X12134071Y-12528214D02*
X12134071Y-12585357D01*
X12576928Y-12942500D02*
X12562643Y-12928214D01*
X12534071Y-12885357D01*
X12519786Y-12856786D01*
X12505500Y-12813929D01*
X12491214Y-12742500D01*
X12491214Y-12685357D01*
X12505500Y-12613929D01*
X12519786Y-12571071D01*
X12534071Y-12542500D01*
X12562643Y-12499643D01*
X12576928Y-12485357D01*
X12819786Y-12628214D02*
X12819786Y-12828214D01*
X12748357Y-12513929D02*
X12676928Y-12728214D01*
X12862643Y-12728214D01*
X12948357Y-12528214D02*
X13134071Y-12528214D01*
X13034071Y-12642500D01*
X13076928Y-12642500D01*
X13105500Y-12656786D01*
X13119786Y-12671071D01*
X13134071Y-12699643D01*
X13134071Y-12771071D01*
X13119786Y-12799643D01*
X13105500Y-12813929D01*
X13076928Y-12828214D01*
X12991214Y-12828214D01*
X12962643Y-12813929D01*
X12948357Y-12799643D01*
X13491214Y-12828214D02*
X13491214Y-12528214D01*
X13619786Y-12828214D02*
X13619786Y-12671071D01*
X13605500Y-12642500D01*
X13576928Y-12628214D01*
X13534071Y-12628214D01*
X13505500Y-12642500D01*
X13491214Y-12656786D01*
X13805500Y-12828214D02*
X13776928Y-12813929D01*
X13762643Y-12799643D01*
X13748357Y-12771071D01*
X13748357Y-12685357D01*
X13762643Y-12656786D01*
X13776928Y-12642500D01*
X13805500Y-12628214D01*
X13848357Y-12628214D01*
X13876928Y-12642500D01*
X13891214Y-12656786D01*
X13905500Y-12685357D01*
X13905500Y-12771071D01*
X13891214Y-12799643D01*
X13876928Y-12813929D01*
X13848357Y-12828214D01*
X13805500Y-12828214D01*
X14076928Y-12828214D02*
X14048357Y-12813929D01*
X14034071Y-12785357D01*
X14034071Y-12528214D01*
X14305500Y-12813929D02*
X14276928Y-12828214D01*
X14219786Y-12828214D01*
X14191214Y-12813929D01*
X14176928Y-12785357D01*
X14176928Y-12671071D01*
X14191214Y-12642500D01*
X14219786Y-12628214D01*
X14276928Y-12628214D01*
X14305500Y-12642500D01*
X14319786Y-12671071D01*
X14319786Y-12699643D01*
X14176928Y-12728214D01*
X14434071Y-12813929D02*
X14462643Y-12828214D01*
X14519786Y-12828214D01*
X14548357Y-12813929D01*
X14562643Y-12785357D01*
X14562643Y-12771071D01*
X14548357Y-12742500D01*
X14519786Y-12728214D01*
X14476928Y-12728214D01*
X14448357Y-12713929D01*
X14434071Y-12685357D01*
X14434071Y-12671071D01*
X14448357Y-12642500D01*
X14476928Y-12628214D01*
X14519786Y-12628214D01*
X14548357Y-12642500D01*
X14662643Y-12942500D02*
X14676928Y-12928214D01*
X14705500Y-12885357D01*
X14719786Y-12856786D01*
X14734071Y-12813929D01*
X14748357Y-12742500D01*
X14748357Y-12685357D01*
X14734071Y-12613929D01*
X14719786Y-12571071D01*
X14705500Y-12542500D01*
X14676928Y-12499643D01*
X14662643Y-12485357D01*
X7872927Y-13130927D02*
X7872927Y-13046073D01*
X7788073Y-13046073D01*
X7788073Y-13130927D01*
X7872927Y-13130927D01*
X8334071Y-13224214D02*
X8162643Y-13224214D01*
X8248357Y-13224214D02*
X8248357Y-12924214D01*
X8219786Y-12967071D01*
X8191214Y-12995643D01*
X8162643Y-13009929D01*
X8462643Y-13195643D02*
X8476928Y-13209929D01*
X8462643Y-13224214D01*
X8448357Y-13209929D01*
X8462643Y-13195643D01*
X8462643Y-13224214D01*
X8591214Y-12952786D02*
X8605500Y-12938500D01*
X8634071Y-12924214D01*
X8705500Y-12924214D01*
X8734071Y-12938500D01*
X8748357Y-12952786D01*
X8762643Y-12981357D01*
X8762643Y-13009929D01*
X8748357Y-13052786D01*
X8576928Y-13224214D01*
X8762643Y-13224214D01*
X8948357Y-12924214D02*
X8976928Y-12924214D01*
X9005500Y-12938500D01*
X9019786Y-12952786D01*
X9034071Y-12981357D01*
X9048357Y-13038500D01*
X9048357Y-13109929D01*
X9034071Y-13167071D01*
X9019786Y-13195643D01*
X9005500Y-13209929D01*
X8976928Y-13224214D01*
X8948357Y-13224214D01*
X8919786Y-13209929D01*
X8905500Y-13195643D01*
X8891214Y-13167071D01*
X8876928Y-13109929D01*
X8876928Y-13038500D01*
X8891214Y-12981357D01*
X8905500Y-12952786D01*
X8919786Y-12938500D01*
X8948357Y-12924214D01*
X9176928Y-13224214D02*
X9176928Y-13024214D01*
X9176928Y-13052786D02*
X9191214Y-13038500D01*
X9219786Y-13024214D01*
X9262643Y-13024214D01*
X9291214Y-13038500D01*
X9305500Y-13067071D01*
X9305500Y-13224214D01*
X9305500Y-13067071D02*
X9319786Y-13038500D01*
X9348357Y-13024214D01*
X9391214Y-13024214D01*
X9419786Y-13038500D01*
X9434071Y-13067071D01*
X9434071Y-13224214D01*
X9576928Y-13224214D02*
X9576928Y-13024214D01*
X9576928Y-13052786D02*
X9591214Y-13038500D01*
X9619786Y-13024214D01*
X9662643Y-13024214D01*
X9691214Y-13038500D01*
X9705500Y-13067071D01*
X9705500Y-13224214D01*
X9705500Y-13067071D02*
X9719786Y-13038500D01*
X9748357Y-13024214D01*
X9791214Y-13024214D01*
X9819786Y-13038500D01*
X9834071Y-13067071D01*
X9834071Y-13224214D01*
X10419786Y-12909929D02*
X10162643Y-13295643D01*
X10805500Y-12924214D02*
X10834071Y-12924214D01*
X10862643Y-12938500D01*
X10876928Y-12952786D01*
X10891214Y-12981357D01*
X10905500Y-13038500D01*
X10905500Y-13109929D01*
X10891214Y-13167071D01*
X10876928Y-13195643D01*
X10862643Y-13209929D01*
X10834071Y-13224214D01*
X10805500Y-13224214D01*
X10776928Y-13209929D01*
X10762643Y-13195643D01*
X10748357Y-13167071D01*
X10734071Y-13109929D01*
X10734071Y-13038500D01*
X10748357Y-12981357D01*
X10762643Y-12952786D01*
X10776928Y-12938500D01*
X10805500Y-12924214D01*
X11034071Y-13195643D02*
X11048357Y-13209929D01*
X11034071Y-13224214D01*
X11019786Y-13209929D01*
X11034071Y-13195643D01*
X11034071Y-13224214D01*
X11234071Y-12924214D02*
X11262643Y-12924214D01*
X11291214Y-12938500D01*
X11305500Y-12952786D01*
X11319786Y-12981357D01*
X11334071Y-13038500D01*
X11334071Y-13109929D01*
X11319786Y-13167071D01*
X11305500Y-13195643D01*
X11291214Y-13209929D01*
X11262643Y-13224214D01*
X11234071Y-13224214D01*
X11205500Y-13209929D01*
X11191214Y-13195643D01*
X11176928Y-13167071D01*
X11162643Y-13109929D01*
X11162643Y-13038500D01*
X11176928Y-12981357D01*
X11191214Y-12952786D01*
X11205500Y-12938500D01*
X11234071Y-12924214D01*
X11591214Y-13024214D02*
X11591214Y-13224214D01*
X11519786Y-12909929D02*
X11448357Y-13124214D01*
X11634071Y-13124214D01*
X11719786Y-12924214D02*
X11919786Y-12924214D01*
X11791214Y-13224214D01*
X12019786Y-12924214D02*
X12019786Y-12981357D01*
X12134071Y-12924214D02*
X12134071Y-12981357D01*
X12576928Y-13338500D02*
X12562643Y-13324214D01*
X12534071Y-13281357D01*
X12519786Y-13252786D01*
X12505500Y-13209929D01*
X12491214Y-13138500D01*
X12491214Y-13081357D01*
X12505500Y-13009929D01*
X12519786Y-12967071D01*
X12534071Y-12938500D01*
X12562643Y-12895643D01*
X12576928Y-12881357D01*
X12734071Y-13052786D02*
X12705500Y-13038500D01*
X12691214Y-13024214D01*
X12676928Y-12995643D01*
X12676928Y-12981357D01*
X12691214Y-12952786D01*
X12705500Y-12938500D01*
X12734071Y-12924214D01*
X12791214Y-12924214D01*
X12819786Y-12938500D01*
X12834071Y-12952786D01*
X12848357Y-12981357D01*
X12848357Y-12995643D01*
X12834071Y-13024214D01*
X12819786Y-13038500D01*
X12791214Y-13052786D01*
X12734071Y-13052786D01*
X12705500Y-13067071D01*
X12691214Y-13081357D01*
X12676928Y-13109929D01*
X12676928Y-13167071D01*
X12691214Y-13195643D01*
X12705500Y-13209929D01*
X12734071Y-13224214D01*
X12791214Y-13224214D01*
X12819786Y-13209929D01*
X12834071Y-13195643D01*
X12848357Y-13167071D01*
X12848357Y-13109929D01*
X12834071Y-13081357D01*
X12819786Y-13067071D01*
X12791214Y-13052786D01*
X13205500Y-13224214D02*
X13205500Y-12924214D01*
X13334071Y-13224214D02*
X13334071Y-13067071D01*
X13319786Y-13038500D01*
X13291214Y-13024214D01*
X13248357Y-13024214D01*
X13219786Y-13038500D01*
X13205500Y-13052786D01*
X13519786Y-13224214D02*
X13491214Y-13209929D01*
X13476928Y-13195643D01*
X13462643Y-13167071D01*
X13462643Y-13081357D01*
X13476928Y-13052786D01*
X13491214Y-13038500D01*
X13519786Y-13024214D01*
X13562643Y-13024214D01*
X13591214Y-13038500D01*
X13605500Y-13052786D01*
X13619786Y-13081357D01*
X13619786Y-13167071D01*
X13605500Y-13195643D01*
X13591214Y-13209929D01*
X13562643Y-13224214D01*
X13519786Y-13224214D01*
X13791214Y-13224214D02*
X13762643Y-13209929D01*
X13748357Y-13181357D01*
X13748357Y-12924214D01*
X14019786Y-13209929D02*
X13991214Y-13224214D01*
X13934071Y-13224214D01*
X13905500Y-13209929D01*
X13891214Y-13181357D01*
X13891214Y-13067071D01*
X13905500Y-13038500D01*
X13934071Y-13024214D01*
X13991214Y-13024214D01*
X14019786Y-13038500D01*
X14034071Y-13067071D01*
X14034071Y-13095643D01*
X13891214Y-13124214D01*
X14148357Y-13209929D02*
X14176928Y-13224214D01*
X14234071Y-13224214D01*
X14262643Y-13209929D01*
X14276928Y-13181357D01*
X14276928Y-13167071D01*
X14262643Y-13138500D01*
X14234071Y-13124214D01*
X14191214Y-13124214D01*
X14162643Y-13109929D01*
X14148357Y-13081357D01*
X14148357Y-13067071D01*
X14162643Y-13038500D01*
X14191214Y-13024214D01*
X14234071Y-13024214D01*
X14262643Y-13038500D01*
X14376928Y-13338500D02*
X14391214Y-13324214D01*
X14419786Y-13281357D01*
X14434071Y-13252786D01*
X14448357Y-13209929D01*
X14462643Y-13138500D01*
X14462643Y-13081357D01*
X14448357Y-13009929D01*
X14434071Y-12967071D01*
X14419786Y-12938500D01*
X14391214Y-12895643D01*
X14376928Y-12881357D01*
X7780500Y-13594500D02*
X7890500Y-13484500D01*
X7780500Y-13374500D01*
X7670500Y-13484500D01*
X7780500Y-13594500D01*
X8162643Y-13348786D02*
X8176928Y-13334500D01*
X8205500Y-13320214D01*
X8276928Y-13320214D01*
X8305500Y-13334500D01*
X8319786Y-13348786D01*
X8334071Y-13377357D01*
X8334071Y-13405929D01*
X8319786Y-13448786D01*
X8148357Y-13620214D01*
X8334071Y-13620214D01*
X8462643Y-13591643D02*
X8476928Y-13605929D01*
X8462643Y-13620214D01*
X8448357Y-13605929D01*
X8462643Y-13591643D01*
X8462643Y-13620214D01*
X8591214Y-13348786D02*
X8605500Y-13334500D01*
X8634071Y-13320214D01*
X8705500Y-13320214D01*
X8734071Y-13334500D01*
X8748357Y-13348786D01*
X8762643Y-13377357D01*
X8762643Y-13405929D01*
X8748357Y-13448786D01*
X8576928Y-13620214D01*
X8762643Y-13620214D01*
X8948357Y-13320214D02*
X8976928Y-13320214D01*
X9005500Y-13334500D01*
X9019786Y-13348786D01*
X9034071Y-13377357D01*
X9048357Y-13434500D01*
X9048357Y-13505929D01*
X9034071Y-13563071D01*
X9019786Y-13591643D01*
X9005500Y-13605929D01*
X8976928Y-13620214D01*
X8948357Y-13620214D01*
X8919786Y-13605929D01*
X8905500Y-13591643D01*
X8891214Y-13563071D01*
X8876928Y-13505929D01*
X8876928Y-13434500D01*
X8891214Y-13377357D01*
X8905500Y-13348786D01*
X8919786Y-13334500D01*
X8948357Y-13320214D01*
X9176928Y-13620214D02*
X9176928Y-13420214D01*
X9176928Y-13448786D02*
X9191214Y-13434500D01*
X9219786Y-13420214D01*
X9262643Y-13420214D01*
X9291214Y-13434500D01*
X9305500Y-13463071D01*
X9305500Y-13620214D01*
X9305500Y-13463071D02*
X9319786Y-13434500D01*
X9348357Y-13420214D01*
X9391214Y-13420214D01*
X9419786Y-13434500D01*
X9434071Y-13463071D01*
X9434071Y-13620214D01*
X9576928Y-13620214D02*
X9576928Y-13420214D01*
X9576928Y-13448786D02*
X9591214Y-13434500D01*
X9619786Y-13420214D01*
X9662643Y-13420214D01*
X9691214Y-13434500D01*
X9705500Y-13463071D01*
X9705500Y-13620214D01*
X9705500Y-13463071D02*
X9719786Y-13434500D01*
X9748357Y-13420214D01*
X9791214Y-13420214D01*
X9819786Y-13434500D01*
X9834071Y-13463071D01*
X9834071Y-13620214D01*
X10419786Y-13305929D02*
X10162643Y-13691643D01*
X10805500Y-13320214D02*
X10834071Y-13320214D01*
X10862643Y-13334500D01*
X10876928Y-13348786D01*
X10891214Y-13377357D01*
X10905500Y-13434500D01*
X10905500Y-13505929D01*
X10891214Y-13563071D01*
X10876928Y-13591643D01*
X10862643Y-13605929D01*
X10834071Y-13620214D01*
X10805500Y-13620214D01*
X10776928Y-13605929D01*
X10762643Y-13591643D01*
X10748357Y-13563071D01*
X10734071Y-13505929D01*
X10734071Y-13434500D01*
X10748357Y-13377357D01*
X10762643Y-13348786D01*
X10776928Y-13334500D01*
X10805500Y-13320214D01*
X11034071Y-13591643D02*
X11048357Y-13605929D01*
X11034071Y-13620214D01*
X11019786Y-13605929D01*
X11034071Y-13591643D01*
X11034071Y-13620214D01*
X11234071Y-13320214D02*
X11262643Y-13320214D01*
X11291214Y-13334500D01*
X11305500Y-13348786D01*
X11319786Y-13377357D01*
X11334071Y-13434500D01*
X11334071Y-13505929D01*
X11319786Y-13563071D01*
X11305500Y-13591643D01*
X11291214Y-13605929D01*
X11262643Y-13620214D01*
X11234071Y-13620214D01*
X11205500Y-13605929D01*
X11191214Y-13591643D01*
X11176928Y-13563071D01*
X11162643Y-13505929D01*
X11162643Y-13434500D01*
X11176928Y-13377357D01*
X11191214Y-13348786D01*
X11205500Y-13334500D01*
X11234071Y-13320214D01*
X11505500Y-13448786D02*
X11476928Y-13434500D01*
X11462643Y-13420214D01*
X11448357Y-13391643D01*
X11448357Y-13377357D01*
X11462643Y-13348786D01*
X11476928Y-13334500D01*
X11505500Y-13320214D01*
X11562643Y-13320214D01*
X11591214Y-13334500D01*
X11605500Y-13348786D01*
X11619786Y-13377357D01*
X11619786Y-13391643D01*
X11605500Y-13420214D01*
X11591214Y-13434500D01*
X11562643Y-13448786D01*
X11505500Y-13448786D01*
X11476928Y-13463071D01*
X11462643Y-13477357D01*
X11448357Y-13505929D01*
X11448357Y-13563071D01*
X11462643Y-13591643D01*
X11476928Y-13605929D01*
X11505500Y-13620214D01*
X11562643Y-13620214D01*
X11591214Y-13605929D01*
X11605500Y-13591643D01*
X11619786Y-13563071D01*
X11619786Y-13505929D01*
X11605500Y-13477357D01*
X11591214Y-13463071D01*
X11562643Y-13448786D01*
X11719786Y-13320214D02*
X11919786Y-13320214D01*
X11791214Y-13620214D01*
X12019786Y-13320214D02*
X12019786Y-13377357D01*
X12134071Y-13320214D02*
X12134071Y-13377357D01*
X12576928Y-13734500D02*
X12562643Y-13720214D01*
X12534071Y-13677357D01*
X12519786Y-13648786D01*
X12505500Y-13605929D01*
X12491214Y-13534500D01*
X12491214Y-13477357D01*
X12505500Y-13405929D01*
X12519786Y-13363071D01*
X12534071Y-13334500D01*
X12562643Y-13291643D01*
X12576928Y-13277357D01*
X12676928Y-13348786D02*
X12691214Y-13334500D01*
X12719786Y-13320214D01*
X12791214Y-13320214D01*
X12819786Y-13334500D01*
X12834071Y-13348786D01*
X12848357Y-13377357D01*
X12848357Y-13405929D01*
X12834071Y-13448786D01*
X12662643Y-13620214D01*
X12848357Y-13620214D01*
X13205500Y-13620214D02*
X13205500Y-13320214D01*
X13334071Y-13620214D02*
X13334071Y-13463071D01*
X13319786Y-13434500D01*
X13291214Y-13420214D01*
X13248357Y-13420214D01*
X13219786Y-13434500D01*
X13205500Y-13448786D01*
X13519786Y-13620214D02*
X13491214Y-13605929D01*
X13476928Y-13591643D01*
X13462643Y-13563071D01*
X13462643Y-13477357D01*
X13476928Y-13448786D01*
X13491214Y-13434500D01*
X13519786Y-13420214D01*
X13562643Y-13420214D01*
X13591214Y-13434500D01*
X13605500Y-13448786D01*
X13619786Y-13477357D01*
X13619786Y-13563071D01*
X13605500Y-13591643D01*
X13591214Y-13605929D01*
X13562643Y-13620214D01*
X13519786Y-13620214D01*
X13791214Y-13620214D02*
X13762643Y-13605929D01*
X13748357Y-13577357D01*
X13748357Y-13320214D01*
X14019786Y-13605929D02*
X13991214Y-13620214D01*
X13934071Y-13620214D01*
X13905500Y-13605929D01*
X13891214Y-13577357D01*
X13891214Y-13463071D01*
X13905500Y-13434500D01*
X13934071Y-13420214D01*
X13991214Y-13420214D01*
X14019786Y-13434500D01*
X14034071Y-13463071D01*
X14034071Y-13491643D01*
X13891214Y-13520214D01*
X14148357Y-13605929D02*
X14176928Y-13620214D01*
X14234071Y-13620214D01*
X14262643Y-13605929D01*
X14276928Y-13577357D01*
X14276928Y-13563071D01*
X14262643Y-13534500D01*
X14234071Y-13520214D01*
X14191214Y-13520214D01*
X14162643Y-13505929D01*
X14148357Y-13477357D01*
X14148357Y-13463071D01*
X14162643Y-13434500D01*
X14191214Y-13420214D01*
X14234071Y-13420214D01*
X14262643Y-13434500D01*
X14376928Y-13734500D02*
X14391214Y-13720214D01*
X14419786Y-13677357D01*
X14434071Y-13648786D01*
X14448357Y-13605929D01*
X14462643Y-13534500D01*
X14462643Y-13477357D01*
X14448357Y-13405929D01*
X14434071Y-13363071D01*
X14419786Y-13334500D01*
X14391214Y-13291643D01*
X14376928Y-13277357D01*
X7570500Y-13720500D02*
X7890500Y-14040500D01*
X7890500Y-13720500D02*
X7570500Y-14040500D01*
X7890500Y-13880500D02*
G75*
G03*
X7890500Y-13880500I-160000J0D01*
G01*
X8148357Y-13716214D02*
X8334071Y-13716214D01*
X8234071Y-13830500D01*
X8276928Y-13830500D01*
X8305500Y-13844786D01*
X8319786Y-13859071D01*
X8334071Y-13887643D01*
X8334071Y-13959071D01*
X8319786Y-13987643D01*
X8305500Y-14001929D01*
X8276928Y-14016214D01*
X8191214Y-14016214D01*
X8162643Y-14001929D01*
X8148357Y-13987643D01*
X8462643Y-13987643D02*
X8476928Y-14001929D01*
X8462643Y-14016214D01*
X8448357Y-14001929D01*
X8462643Y-13987643D01*
X8462643Y-14016214D01*
X8591214Y-13744786D02*
X8605500Y-13730500D01*
X8634071Y-13716214D01*
X8705500Y-13716214D01*
X8734071Y-13730500D01*
X8748357Y-13744786D01*
X8762643Y-13773357D01*
X8762643Y-13801929D01*
X8748357Y-13844786D01*
X8576928Y-14016214D01*
X8762643Y-14016214D01*
X8948357Y-13716214D02*
X8976928Y-13716214D01*
X9005500Y-13730500D01*
X9019786Y-13744786D01*
X9034071Y-13773357D01*
X9048357Y-13830500D01*
X9048357Y-13901929D01*
X9034071Y-13959071D01*
X9019786Y-13987643D01*
X9005500Y-14001929D01*
X8976928Y-14016214D01*
X8948357Y-14016214D01*
X8919786Y-14001929D01*
X8905500Y-13987643D01*
X8891214Y-13959071D01*
X8876928Y-13901929D01*
X8876928Y-13830500D01*
X8891214Y-13773357D01*
X8905500Y-13744786D01*
X8919786Y-13730500D01*
X8948357Y-13716214D01*
X9176928Y-14016214D02*
X9176928Y-13816214D01*
X9176928Y-13844786D02*
X9191214Y-13830500D01*
X9219786Y-13816214D01*
X9262643Y-13816214D01*
X9291214Y-13830500D01*
X9305500Y-13859071D01*
X9305500Y-14016214D01*
X9305500Y-13859071D02*
X9319786Y-13830500D01*
X9348357Y-13816214D01*
X9391214Y-13816214D01*
X9419786Y-13830500D01*
X9434071Y-13859071D01*
X9434071Y-14016214D01*
X9576928Y-14016214D02*
X9576928Y-13816214D01*
X9576928Y-13844786D02*
X9591214Y-13830500D01*
X9619786Y-13816214D01*
X9662643Y-13816214D01*
X9691214Y-13830500D01*
X9705500Y-13859071D01*
X9705500Y-14016214D01*
X9705500Y-13859071D02*
X9719786Y-13830500D01*
X9748357Y-13816214D01*
X9791214Y-13816214D01*
X9819786Y-13830500D01*
X9834071Y-13859071D01*
X9834071Y-14016214D01*
X10419786Y-13701929D02*
X10162643Y-14087643D01*
X10805500Y-13716214D02*
X10834071Y-13716214D01*
X10862643Y-13730500D01*
X10876928Y-13744786D01*
X10891214Y-13773357D01*
X10905500Y-13830500D01*
X10905500Y-13901929D01*
X10891214Y-13959071D01*
X10876928Y-13987643D01*
X10862643Y-14001929D01*
X10834071Y-14016214D01*
X10805500Y-14016214D01*
X10776928Y-14001929D01*
X10762643Y-13987643D01*
X10748357Y-13959071D01*
X10734071Y-13901929D01*
X10734071Y-13830500D01*
X10748357Y-13773357D01*
X10762643Y-13744786D01*
X10776928Y-13730500D01*
X10805500Y-13716214D01*
X11034071Y-13987643D02*
X11048357Y-14001929D01*
X11034071Y-14016214D01*
X11019786Y-14001929D01*
X11034071Y-13987643D01*
X11034071Y-14016214D01*
X11334071Y-14016214D02*
X11162643Y-14016214D01*
X11248357Y-14016214D02*
X11248357Y-13716214D01*
X11219786Y-13759071D01*
X11191214Y-13787643D01*
X11162643Y-13801929D01*
X11448357Y-13744786D02*
X11462643Y-13730500D01*
X11491214Y-13716214D01*
X11562643Y-13716214D01*
X11591214Y-13730500D01*
X11605500Y-13744786D01*
X11619786Y-13773357D01*
X11619786Y-13801929D01*
X11605500Y-13844786D01*
X11434071Y-14016214D01*
X11619786Y-14016214D01*
X11876928Y-13716214D02*
X11819786Y-13716214D01*
X11791214Y-13730500D01*
X11776928Y-13744786D01*
X11748357Y-13787643D01*
X11734071Y-13844786D01*
X11734071Y-13959071D01*
X11748357Y-13987643D01*
X11762643Y-14001929D01*
X11791214Y-14016214D01*
X11848357Y-14016214D01*
X11876928Y-14001929D01*
X11891214Y-13987643D01*
X11905500Y-13959071D01*
X11905500Y-13887643D01*
X11891214Y-13859071D01*
X11876928Y-13844786D01*
X11848357Y-13830500D01*
X11791214Y-13830500D01*
X11762643Y-13844786D01*
X11748357Y-13859071D01*
X11734071Y-13887643D01*
X12019786Y-13716214D02*
X12019786Y-13773357D01*
X12134071Y-13716214D02*
X12134071Y-13773357D01*
X12576928Y-14130500D02*
X12562643Y-14116214D01*
X12534071Y-14073357D01*
X12519786Y-14044786D01*
X12505500Y-14001929D01*
X12491214Y-13930500D01*
X12491214Y-13873357D01*
X12505500Y-13801929D01*
X12519786Y-13759071D01*
X12534071Y-13730500D01*
X12562643Y-13687643D01*
X12576928Y-13673357D01*
X12819786Y-13716214D02*
X12762643Y-13716214D01*
X12734071Y-13730500D01*
X12719786Y-13744786D01*
X12691214Y-13787643D01*
X12676928Y-13844786D01*
X12676928Y-13959071D01*
X12691214Y-13987643D01*
X12705500Y-14001929D01*
X12734071Y-14016214D01*
X12791214Y-14016214D01*
X12819786Y-14001929D01*
X12834071Y-13987643D01*
X12848357Y-13959071D01*
X12848357Y-13887643D01*
X12834071Y-13859071D01*
X12819786Y-13844786D01*
X12791214Y-13830500D01*
X12734071Y-13830500D01*
X12705500Y-13844786D01*
X12691214Y-13859071D01*
X12676928Y-13887643D01*
X13205500Y-14016214D02*
X13205500Y-13716214D01*
X13334071Y-14016214D02*
X13334071Y-13859071D01*
X13319786Y-13830500D01*
X13291214Y-13816214D01*
X13248357Y-13816214D01*
X13219786Y-13830500D01*
X13205500Y-13844786D01*
X13519786Y-14016214D02*
X13491214Y-14001929D01*
X13476928Y-13987643D01*
X13462643Y-13959071D01*
X13462643Y-13873357D01*
X13476928Y-13844786D01*
X13491214Y-13830500D01*
X13519786Y-13816214D01*
X13562643Y-13816214D01*
X13591214Y-13830500D01*
X13605500Y-13844786D01*
X13619786Y-13873357D01*
X13619786Y-13959071D01*
X13605500Y-13987643D01*
X13591214Y-14001929D01*
X13562643Y-14016214D01*
X13519786Y-14016214D01*
X13791214Y-14016214D02*
X13762643Y-14001929D01*
X13748357Y-13973357D01*
X13748357Y-13716214D01*
X14019786Y-14001929D02*
X13991214Y-14016214D01*
X13934071Y-14016214D01*
X13905500Y-14001929D01*
X13891214Y-13973357D01*
X13891214Y-13859071D01*
X13905500Y-13830500D01*
X13934071Y-13816214D01*
X13991214Y-13816214D01*
X14019786Y-13830500D01*
X14034071Y-13859071D01*
X14034071Y-13887643D01*
X13891214Y-13916214D01*
X14148357Y-14001929D02*
X14176928Y-14016214D01*
X14234071Y-14016214D01*
X14262643Y-14001929D01*
X14276928Y-13973357D01*
X14276928Y-13959071D01*
X14262643Y-13930500D01*
X14234071Y-13916214D01*
X14191214Y-13916214D01*
X14162643Y-13901929D01*
X14148357Y-13873357D01*
X14148357Y-13859071D01*
X14162643Y-13830500D01*
X14191214Y-13816214D01*
X14234071Y-13816214D01*
X14262643Y-13830500D01*
X14376928Y-14130500D02*
X14391214Y-14116214D01*
X14419786Y-14073357D01*
X14434071Y-14044786D01*
X14448357Y-14001929D01*
X14462643Y-13930500D01*
X14462643Y-13873357D01*
X14448357Y-13801929D01*
X14434071Y-13759071D01*
X14419786Y-13730500D01*
X14391214Y-13687643D01*
X14376928Y-13673357D01*
M02*
