%FSLAX45Y45*%
G04 Gerber Fmt 4.5, Leading zero omitted, Abs format (unit mm)*
G04 Created by KiCad (PCBNEW 5.1.9+dfsg1-1~bpo10+1) date 2022-03-28 22:51:13*
%MOMM*%
%LPD*%
G01*
G04 APERTURE LIST*
%TA.AperFunction,Profile*%
%ADD10C,0.050000*%
%TD*%
%ADD11C,0.200000*%
%ADD12C,0.300000*%
G04 APERTURE END LIST*
D10*
X18093000Y-5888000D02*
X18093000Y-10638000D01*
X7893000Y-5888000D02*
X7893000Y-10588000D01*
X18093000Y-10638000D02*
G75*
G02*
X17793000Y-10938000I-300000J0D01*
G01*
X17793000Y-5588000D02*
G75*
G02*
X18093000Y-5888000I0J-300000D01*
G01*
X7893000Y-5888000D02*
G75*
G02*
X8193000Y-5588000I300000J0D01*
G01*
X8193000Y-10938000D02*
G75*
G02*
X7893000Y-10638000I0J300000D01*
G01*
X8193000Y-10938000D02*
X17793000Y-10938000D01*
X7893000Y-10588000D02*
X7893000Y-10638000D01*
X8193000Y-5588000D02*
X17793000Y-5588000D01*
D11*
D12*
X8176928Y-11406214D02*
X8176928Y-11106214D01*
X8248357Y-11106214D01*
X8291214Y-11120500D01*
X8319786Y-11149072D01*
X8334071Y-11177643D01*
X8348357Y-11234786D01*
X8348357Y-11277643D01*
X8334071Y-11334786D01*
X8319786Y-11363357D01*
X8291214Y-11391929D01*
X8248357Y-11406214D01*
X8176928Y-11406214D01*
X8476928Y-11406214D02*
X8476928Y-11206214D01*
X8476928Y-11263357D02*
X8491214Y-11234786D01*
X8505500Y-11220500D01*
X8534071Y-11206214D01*
X8562643Y-11206214D01*
X8662643Y-11406214D02*
X8662643Y-11206214D01*
X8662643Y-11106214D02*
X8648357Y-11120500D01*
X8662643Y-11134786D01*
X8676928Y-11120500D01*
X8662643Y-11106214D01*
X8662643Y-11134786D01*
X8848357Y-11406214D02*
X8819786Y-11391929D01*
X8805500Y-11363357D01*
X8805500Y-11106214D01*
X9005500Y-11406214D02*
X8976928Y-11391929D01*
X8962643Y-11363357D01*
X8962643Y-11106214D01*
X9348357Y-11406214D02*
X9348357Y-11106214D01*
X9448357Y-11320500D01*
X9548357Y-11106214D01*
X9548357Y-11406214D01*
X9819786Y-11406214D02*
X9819786Y-11249071D01*
X9805500Y-11220500D01*
X9776928Y-11206214D01*
X9719786Y-11206214D01*
X9691214Y-11220500D01*
X9819786Y-11391929D02*
X9791214Y-11406214D01*
X9719786Y-11406214D01*
X9691214Y-11391929D01*
X9676928Y-11363357D01*
X9676928Y-11334786D01*
X9691214Y-11306214D01*
X9719786Y-11291929D01*
X9791214Y-11291929D01*
X9819786Y-11277643D01*
X9962643Y-11206214D02*
X9962643Y-11506214D01*
X9962643Y-11220500D02*
X9991214Y-11206214D01*
X10048357Y-11206214D01*
X10076928Y-11220500D01*
X10091214Y-11234786D01*
X10105500Y-11263357D01*
X10105500Y-11349071D01*
X10091214Y-11377643D01*
X10076928Y-11391929D01*
X10048357Y-11406214D01*
X9991214Y-11406214D01*
X9962643Y-11391929D01*
X10234071Y-11377643D02*
X10248357Y-11391929D01*
X10234071Y-11406214D01*
X10219786Y-11391929D01*
X10234071Y-11377643D01*
X10234071Y-11406214D01*
X10234071Y-11220500D02*
X10248357Y-11234786D01*
X10234071Y-11249071D01*
X10219786Y-11234786D01*
X10234071Y-11220500D01*
X10234071Y-11249071D01*
M02*
