M48
; DRILL file {KiCad 5.1.9+dfsg1-1~bpo10+1} date Mon Mar 28 22:51:15 2022
; FORMAT={-:-/ absolute / metric / decimal}
; #@! TF.CreationDate,2022-03-28T22:51:15+02:00
; #@! TF.GenerationSoftware,Kicad,Pcbnew,5.1.9+dfsg1-1~bpo10+1
; #@! TF.FileFunction,Plated,1,2,PTH
FMAT,2
METRIC
T1C0.400
T2C0.500
T3C1.000
T4C1.200
T5C2.200
T6C3.200
%
G90
G05
T1
X109.728Y-70.612
X157.988Y-85.09
X161.036Y-83.312
X170.307Y-83.312
T2
X81.03Y-60.88
X81.03Y-104.88
X81.733Y-59.183
X81.733Y-62.577
X81.733Y-103.183
X81.733Y-106.577
X83.43Y-58.48
X83.43Y-63.28
X83.43Y-102.48
X83.43Y-107.28
X85.127Y-59.183
X85.127Y-62.577
X85.127Y-103.183
X85.127Y-106.577
X85.83Y-60.88
X85.83Y-104.88
X149.53Y-60.88
X149.53Y-104.88
X150.233Y-59.183
X150.233Y-62.577
X150.233Y-103.183
X150.233Y-106.577
X151.93Y-58.48
X151.93Y-63.28
X151.93Y-102.48
X151.93Y-107.28
X153.627Y-59.183
X153.627Y-62.577
X153.627Y-103.183
X153.627Y-106.577
X154.33Y-60.88
X154.33Y-104.88
X174.03Y-60.88
X174.03Y-104.88
X174.733Y-59.183
X174.733Y-62.577
X174.733Y-103.183
X174.733Y-106.577
X176.43Y-58.48
X176.43Y-63.28
X176.43Y-102.48
X176.43Y-107.28
X178.127Y-59.183
X178.127Y-62.577
X178.127Y-103.183
X178.127Y-106.577
X178.83Y-60.88
X178.83Y-104.88
T3
X88.33Y-65.215
X88.33Y-67.755
X90.87Y-65.215
X90.87Y-67.755
X93.41Y-65.215
X93.41Y-67.755
X95.95Y-65.215
X95.95Y-67.755
X98.49Y-65.215
X98.49Y-67.755
X101.03Y-65.215
X101.03Y-67.755
X103.57Y-65.215
X103.57Y-67.755
X106.11Y-65.215
X106.11Y-67.755
X108.65Y-65.215
X108.65Y-67.755
X111.19Y-65.215
X111.19Y-67.755
X113.73Y-65.215
X113.73Y-67.755
X116.27Y-65.215
X116.27Y-67.755
X118.81Y-65.215
X118.81Y-67.755
X121.35Y-65.215
X121.35Y-67.755
X123.89Y-65.215
X123.89Y-67.755
X126.43Y-65.215
X126.43Y-67.755
X128.97Y-65.215
X128.97Y-67.755
X131.51Y-65.215
X131.51Y-67.755
X134.05Y-65.215
X134.05Y-67.755
X136.59Y-65.215
X136.59Y-67.755
X161.85Y-103.48
X164.39Y-103.48
X166.93Y-103.48
T4
X151.23Y-66.4
X151.23Y-76.56
X151.23Y-88.4
X151.23Y-98.56
X161.39Y-66.4
X161.39Y-76.56
X161.39Y-88.4
X161.39Y-98.56
T5
X155.03Y-71.48
X155.03Y-93.48
T6
X83.43Y-60.88
X83.43Y-104.88
X151.93Y-60.88
X151.93Y-104.88
X176.43Y-60.88
X176.43Y-104.88
T0
M30
